<svg width="1344.000000pt" height="1341.000000pt" viewBox="0 0 1344.000000 1341.000000" xmlns="http://www.w3.org/2000/svg">
  <g transform="translate(0.000000,1341.000000) scale(0.100000,-0.100000)" fill="#ffffff" stroke="none">
    <path d="M0 6705 l0 -6705 6720 0 6720 0 0 6705 0 6705 -6720 0 -6720 0 0
-6705z m6605 4106 c-9 -8 -556 -323 -880 -507 -60 -34 -159 -92 -220 -128
l-110 -66 -700 0 -700 0 65 39 c109 66 240 142 345 201 215 122 713 409 759
439 l50 31 700 0 700 0 -9 -9z m1641 -23 c9 -18 100 -177 202 -353 153 -265
414 -717 493 -852 l18 -33 -727 0 -727 0 -65 115 c-114 202 -411 716 -485 840
-95 160 -175 301 -175 309 0 3 326 6 725 6 l724 0 17 -32z m-1420 -178 c59
-102 165 -286 237 -410 71 -124 185 -320 253 -437 68 -116 124 -215 124 -220
-1 -4 -189 -115 -418 -246 -229 -131 -509 -292 -622 -358 -113 -65 -209 -119
-215 -119 -11 0 -60 82 -297 495 -86 149 -164 284 -174 302 -143 245 -264 456
-262 458 14 11 327 192 808 467 206 118 391 225 410 236 19 12 38 21 42 19 4
-1 55 -85 114 -187z m2017 -146 c268 -153 534 -306 592 -340 l106 -60 126
-220 c69 -120 154 -266 188 -324 121 -203 376 -652 373 -655 -2 -2 -116 62
-253 141 -288 167 -449 260 -521 300 -28 16 -137 78 -241 139 l-190 110 -85
150 c-89 156 -206 359 -448 775 -78 135 -147 254 -153 265 l-10 20 14 -11 c8
-6 233 -136 502 -290z m-3501 -436 c-92 -153 -162 -272 -302 -518 -90 -157
-187 -325 -216 -373 -30 -49 -54 -90 -54 -91 0 -2 -31 -57 -69 -122 l-69 -119
-727 -3 -727 -2 20 32 c11 18 83 143 160 278 77 135 162 283 190 330 27 47
119 205 203 352 l154 268 728 0 729 0 -20 -32z m189 -215 c63 -109 119 -206
124 -215 100 -175 363 -629 411 -710 35 -59 64 -112 64 -118 0 -6 -17 -39 -39
-73 -37 -60 -114 -191 -135 -232 -6 -11 -72 -125 -146 -253 -74 -127 -173
-299 -220 -380 -47 -81 -107 -185 -133 -231 l-49 -83 -75 129 c-42 70 -126
216 -188 323 -103 180 -181 314 -386 668 l-77 133 87 152 c166 287 389 672
444 767 30 52 86 148 123 212 37 64 71 115 74 113 4 -3 59 -94 121 -202z
m3408 -335 c-24 -46 -284 -496 -359 -623 -42 -71 -139 -239 -215 -372 l-138
-243 -723 0 c-398 0 -724 3 -724 6 0 7 109 198 176 309 23 39 127 219 232 400
104 182 218 378 252 438 l63 107 724 0 724 0 -12 -22z m491 -226 c206 -118
391 -225 410 -237 19 -12 121 -71 225 -130 105 -60 195 -113 201 -119 l12 -11
-208 -360 c-115 -198 -234 -405 -266 -460 -151 -262 -248 -430 -250 -433 -1
-2 -49 23 -105 56 -318 180 -542 310 -604 347 -38 24 -178 105 -310 180 -132
75 -241 138 -243 140 -3 3 175 316 405 713 34 59 120 207 190 329 l128 221 20
-10 c11 -6 189 -108 395 -226z m-2051 151 c-12 -21 -30 -49 -39 -63 -9 -14
-104 -177 -211 -363 -107 -186 -246 -428 -309 -538 l-115 -200 -94 -54 c-51
-30 -95 -55 -96 -55 -3 0 -402 -229 -435 -250 -37 -23 -326 -190 -430 -248
-63 -36 -126 -72 -140 -81 l-25 -16 21 35 c44 73 385 663 488 843 59 104 129
222 155 264 l47 76 240 138 c131 76 356 206 499 288 143 82 303 174 355 205
52 31 99 56 103 56 5 0 -2 -17 -14 -37z m-2759 -1388 l0 -735 -735 0 -735 0 0
735 0 735 735 0 735 0 0 -735z m5896 365 c103 -179 265 -459 359 -624 l172
-298 -165 -287 c-91 -157 -251 -435 -356 -618 -105 -182 -195 -333 -201 -335
-10 -3 -33 35 -276 457 -88 154 -187 325 -220 380 -32 55 -97 169 -145 252
l-85 153 139 242 c77 134 175 304 219 378 44 74 128 221 187 325 132 231 177
307 181 303 2 -2 88 -149 191 -328z m-7578 -1393 c-89 -155 -194 -336 -233
-402 -39 -66 -125 -214 -191 -329 l-119 -209 -3 696 -2 695 106 183 c58 101
119 207 134 234 15 28 51 88 78 135 28 47 126 217 219 378 l168 293 3 -696 2
-697 -162 -281z m1881 1431 c72 -125 198 -344 280 -485 81 -142 178 -309 215
-371 l66 -113 -2 -697 -3 -697 -48 85 c-26 47 -111 193 -187 324 -77 132 -140
240 -140 241 0 2 -37 65 -81 141 -45 77 -119 204 -165 282 l-84 144 0 696 0
696 8 -9 c5 -6 68 -112 141 -237z m3585 -327 c94 -54 194 -111 221 -126 28
-16 93 -54 145 -85 52 -32 163 -96 245 -143 83 -46 217 -124 299 -171 l150
-86 -701 0 -700 0 -319 183 c-175 101 -416 240 -535 309 -119 69 -251 145
-293 168 -42 23 -76 44 -76 46 0 2 313 4 696 4 l696 0 172 -99z m1265 -878
c69 -120 157 -272 196 -338 39 -66 84 -142 100 -170 15 -27 88 -156 163 -285
74 -129 137 -238 139 -242 2 -5 -322 -8 -721 -8 l-724 0 -47 83 c-26 45 -91
156 -145 247 -53 91 -167 287 -252 435 -86 149 -185 321 -221 383 l-66 112
727 0 727 0 124 -217z m1303 -1406 c-49 -83 -120 -206 -157 -272 -37 -66 -100
-174 -140 -240 -39 -66 -127 -218 -196 -339 l-124 -218 -3 696 -2 697 157 272
c86 150 171 297 189 327 18 30 106 183 196 339 l163 283 3 -696 2 -696 -88
-153z m-2832 1420 c25 -42 123 -213 219 -380 96 -166 206 -356 246 -422 39
-66 95 -161 123 -211 l52 -92 -2 -695 -3 -696 -76 132 c-231 401 -495 857
-558 964 l-71 121 0 699 1 698 12 -20 c6 -11 32 -55 57 -98z m-3410 -174 c56
-98 161 -279 233 -403 71 -124 187 -325 258 -447 71 -122 129 -224 129 -227 0
-3 -326 -6 -724 -6 l-723 0 -118 208 c-65 114 -160 277 -210 362 -94 158 -387
668 -393 682 -2 4 322 8 720 8 l724 0 104 -177z m-1363 -272 c116 -201 273
-473 348 -603 l137 -238 -140 -242 c-591 -1025 -583 -1012 -592 -1002 -4 5
-86 146 -182 314 -202 351 -447 777 -500 867 l-36 61 162 284 c89 156 185 321
213 368 28 47 117 201 199 344 l148 258 16 -22 c8 -13 110 -187 227 -389z
m6933 -1396 l0 -735 -735 0 -735 0 0 735 0 735 735 0 735 0 0 -735z m-4598
351 c167 -96 418 -240 558 -321 140 -81 278 -160 305 -176 l50 -29 -705 0
-706 0 -9 9 c-6 5 -129 78 -275 161 -583 336 -848 489 -881 509 l-34 21 697 0
698 0 302 -174z m-1422 -56 c140 -81 320 -185 400 -231 80 -47 219 -127 310
-179 91 -51 167 -95 168 -96 4 -3 -210 -381 -313 -554 -35 -58 -140 -240 -234
-405 -95 -164 -173 -301 -175 -303 -3 -3 -593 332 -796 453 -58 34 -186 108
-285 165 -99 57 -181 104 -183 105 -1 1 36 69 83 150 47 82 85 149 85 150 0 1
56 98 125 216 68 118 193 334 277 481 l153 267 65 -36 c36 -20 180 -102 320
-183z m3846 55 c42 -71 146 -251 231 -400 182 -315 234 -405 333 -575 40 -68
73 -129 73 -135 0 -5 -54 -102 -120 -215 -66 -113 -197 -338 -290 -500 -235
-408 -307 -530 -313 -530 -3 0 -48 76 -101 168 -175 305 -481 835 -552 956
l-71 119 26 46 c43 77 392 683 445 772 27 46 95 162 149 256 54 95 102 172
106 170 4 -1 42 -60 84 -132z m-268 -53 c-51 -89 -169 -293 -262 -454 -93
-161 -208 -358 -255 -437 l-86 -145 -115 -66 c-63 -37 -162 -94 -220 -127 -58
-33 -270 -155 -472 -271 -201 -117 -373 -215 -383 -218 l-16 -7 32 54 c18 30
114 196 214 369 99 173 213 369 252 435 39 66 100 171 135 233 l64 112 100 57
c54 31 241 138 414 239 492 285 684 394 687 390 2 -2 -38 -76 -89 -164z
m-1267 -672 c-47 -82 -143 -248 -212 -367 -70 -120 -138 -238 -152 -263 -25
-45 -53 -92 -203 -350 l-80 -135 -726 -3 -727 -2 91 157 c51 87 133 229 182
315 50 87 174 302 276 478 l184 320 727 0 727 0 -87 -150z m3670 -427 c-10
-19 -289 -503 -523 -908 -79 -137 -155 -269 -169 -292 l-24 -43 -727 0 -727 0
66 113 c36 61 156 267 265 457 110 190 214 370 232 400 18 30 63 108 100 173
l68 117 724 0 725 0 -10 -17z m-2930 -101 c31 -53 137 -236 234 -407 98 -170
188 -326 200 -345 23 -35 202 -346 223 -386 l12 -22 -88 -50 c-48 -27 -154
-89 -237 -137 -82 -48 -199 -115 -260 -150 -234 -132 -612 -350 -644 -371
l-34 -23 -105 182 c-58 100 -179 310 -269 467 -91 157 -202 348 -247 425 -103
173 -108 183 -101 194 3 5 45 31 93 58 119 67 691 396 942 543 113 65 210 119
215 119 6 0 35 -44 66 -97z m-3926 -50 c66 -38 293 -169 505 -291 212 -122
414 -238 449 -259 l65 -37 106 -185 c204 -354 542 -939 573 -989 11 -19 17
-32 11 -29 -5 3 -43 25 -84 48 -41 24 -120 69 -175 100 -143 80 -631 361 -755
435 -58 34 -125 74 -150 88 l-45 25 -151 264 c-84 144 -207 358 -274 473 -164
281 -260 451 -260 460 0 4 15 -2 33 -13 17 -11 86 -52 152 -90z m2611 -714
c39 -68 122 -211 184 -318 62 -107 160 -276 218 -375 213 -366 252 -434 252
-440 0 -3 -326 -5 -723 -5 l-724 0 -128 223 c-71 122 -190 328 -265 457 -201
345 -330 570 -330 575 0 3 325 5 723 5 l722 0 71 -122z m3424 -441 c-14 -7
-90 -52 -170 -99 -80 -47 -328 -190 -553 -319 -224 -129 -424 -244 -445 -256
l-37 -23 -699 0 -699 0 44 29 c24 15 175 103 334 194 398 227 654 375 755 435
l85 51 705 1 705 0 -25 -13z" />
  </g>
  <g transform="translate(0.000000,1341.000000) scale(0.100000,-0.100000)" fill="#01c59f" stroke="none">
    <path d="M6760 10823 c0 -9 93 -173 185 -328 73 -123 369 -634 485 -840 l65
-115 743 0 743 0 -25 43 c-73 127 -336 583 -498 862 -102 176 -193 335 -202
353 l-17 32 -739 0 c-407 0 -740 -3 -740 -7z" />
    <path d="M6665 10793 c-22 -15 -224 -132 -450 -261 -225 -129 -435 -249 -465
-267 -30 -17 -115 -67 -188 -110 l-133 -78 14 -21 c7 -11 65 -110 128 -219 63
-109 122 -212 133 -230 10 -18 88 -153 174 -302 85 -148 187 -324 226 -391
l71 -120 215 124 c118 69 406 234 639 368 233 134 426 245 428 248 3 3 -62
121 -145 263 -83 142 -199 344 -259 448 -253 440 -330 569 -339 571 -5 2 -27
-9 -49 -23z" />
    <path d="M8292 10795 c6 -10 243 -418 440 -760 61 -104 149 -258 196 -340 l85
-150 190 -110 c104 -61 213 -123 241 -139 75 -42 236 -135 546 -314 151 -88
276 -159 278 -157 3 2 -294 522 -403 705 -34 58 -119 204 -188 324 l-126 220
-106 60 c-57 34 -327 188 -597 344 -271 155 -509 292 -527 305 -19 12 -32 17
-29 12z" />
    <path d="M5332 9922 c-41 -70 -99 -170 -129 -222 -56 -96 -281 -485 -444 -769
-49 -84 -89 -156 -89 -160 0 -3 35 -67 78 -141 212 -366 284 -490 387 -670
183 -317 265 -455 273 -458 4 -1 67 103 141 230 73 128 194 337 268 463 74
127 137 236 140 244 8 18 119 208 162 279 l33 52 -70 118 c-38 64 -144 248
-236 407 -92 160 -172 297 -177 305 -5 8 -63 110 -130 225 -66 116 -124 213
-127 217 -4 4 -40 -50 -80 -120z" />
    <path d="M9000 9490 c0 -5 5 -10 10 -10 6 0 10 5 10 10 0 6 -4 10 -10 10 -5 0
-10 -4 -10 -10z" />
    <path d="M7476 9481 c-4 -7 -5 -15 -2 -18 9 -9 19 4 14 18 l-4 13 -8 -13z" />
    <path d="M9050 9470 c0 -5 7 -10 16 -10 l15 0 -6 10 c-3 6 -10 10 -16 10 -5 0
-9 -4 -9 -10z" />
    <path d="M8920 9444 l0 -15 10 6 c6 3 10 10 10 16 0 5 -4 9 -10 9 -5 0 -10 -7
-10 -16z" />
    <path d="M7345 9430 l-6 -10 15 0 c9 0 16 5 16 10 0 6 -4 10 -9 10 -6 0 -13
-4 -16 -10z" />
    <path d="M7390 9424 l0 -15 10 6 c6 3 10 10 10 16 0 5 -4 9 -10 9 -5 0 -10 -7
-10 -16z" />
    <path d="M8966 9431 c-4 -7 -5 -15 -2 -18 9 -9 19 4 14 18 l-4 13 -8 -13z" />
    <path d="M9120 9430 c0 -5 7 -10 16 -10 l15 0 -6 10 c-3 6 -10 10 -16 10 -5 0
-9 -4 -9 -10z" />
    <path d="M7436 9411 c-4 -7 -5 -15 -2 -18 9 -9 19 4 14 18 l-4 13 -8 -13z" />
    <path d="M9190 9390 c0 -5 7 -10 16 -10 l15 0 -6 10 c-3 6 -10 10 -16 10 -5 0
-9 -4 -9 -10z" />
    <path d="M8880 9374 l0 -15 10 6 c6 3 10 10 10 16 0 5 -4 9 -10 9 -5 0 -10 -7
-10 -16z" />
    <path d="M7350 9354 l0 -15 10 6 c6 3 10 10 10 16 0 5 -4 9 -10 9 -5 0 -10 -7
-10 -16z" />
    <path d="M7155 9320 l-6 -10 15 0 c9 0 16 5 16 10 0 6 -4 10 -9 10 -6 0 -13
-4 -16 -10z" />
    <path d="M9310 9320 c0 -5 7 -10 16 -10 l15 0 -6 10 c-3 6 -10 10 -16 10 -5 0
-9 -4 -9 -10z" />
    <path d="M7357 9280 c-19 -28 -21 -40 -7 -40 6 0 10 6 10 14 0 8 5 16 12 18 6
2 9 10 6 18 l-4 14 -17 -24z" />
    <path d="M7085 9280 l-6 -10 15 0 c9 0 16 5 16 10 0 6 -4 10 -9 10 -6 0 -13
-4 -16 -10z" />
    <path d="M7300 9274 l0 -15 10 6 c6 3 10 10 10 16 0 5 -4 9 -10 9 -5 0 -10 -7
-10 -16z" />
    <path d="M9380 9280 c0 -5 7 -10 16 -10 l15 0 -6 10 c-3 6 -10 10 -16 10 -5 0
-9 -4 -9 -10z" />
    <path d="M8856 9241 c-4 -7 -5 -15 -2 -18 9 -9 19 4 14 18 l-4 13 -8 -13z" />
    <path d="M9470 9230 c0 -5 7 -10 16 -10 l15 0 -6 10 c-3 6 -10 10 -16 10 -5 0
-9 -4 -9 -10z" />
    <path d="M7260 9204 l0 -15 10 6 c6 3 10 10 10 16 0 5 -4 9 -10 9 -5 0 -10 -7
-10 -16z" />
    <path d="M8770 9184 l0 -15 10 6 c6 3 10 10 10 16 0 5 -4 9 -10 9 -5 0 -10 -7
-10 -16z" />
    <path d="M8816 9171 c-4 -7 -5 -15 -2 -18 9 -9 19 4 14 18 l-4 13 -8 -13z" />
    <path d="M6875 9160 l-6 -10 15 0 c9 0 16 5 16 10 0 6 -4 10 -9 10 -6 0 -13
-4 -16 -10z" />
    <path d="M6805 9120 l-6 -10 15 0 c9 0 16 5 16 10 0 6 -4 10 -9 10 -6 0 -13
-4 -16 -10z" />
    <path d="M8730 9114 l0 -15 10 6 c6 3 10 10 10 16 0 5 -4 9 -10 9 -5 0 -10 -7
-10 -16z" />
    <path d="M9660 9120 c0 -5 7 -10 16 -10 l15 0 -6 10 c-3 6 -10 10 -16 10 -5 0
-9 -4 -9 -10z" />
    <path d="M6735 9080 l-6 -10 15 0 c9 0 16 5 16 10 0 6 -4 10 -9 10 -6 0 -13
-4 -16 -10z" />
    <path d="M9730 9080 c0 -5 7 -10 16 -10 l15 0 -6 10 c-3 6 -10 10 -16 10 -5 0
-9 -4 -9 -10z" />
    <path d="M7236 9071 c-4 -7 -5 -15 -2 -18 9 -9 19 4 14 18 l-4 13 -8 -13z" />
    <path d="M8746 9051 c-4 -7 -5 -15 -2 -18 9 -9 19 4 14 18 l-4 13 -8 -13z" />
    <path d="M8680 9024 l0 -15 10 6 c6 3 10 10 10 16 0 5 -4 9 -10 9 -5 0 -10 -7
-10 -16z" />
    <path d="M6585 8990 l-6 -10 15 0 c9 0 16 5 16 10 0 6 -4 10 -9 10 -6 0 -13
-4 -16 -10z" />
    <path d="M7186 8981 c-4 -7 -5 -15 -2 -18 9 -9 19 4 14 18 l-4 13 -8 -13z" />
    <path d="M9900 8980 c0 -5 7 -10 16 -10 l15 0 -6 10 c-3 6 -10 10 -16 10 -5 0
-9 -4 -9 -10z" />
    <path d="M8696 8961 c-4 -7 -5 -15 -2 -18 9 -9 19 4 14 18 l-4 13 -8 -13z" />
    <path d="M6495 8940 l-6 -10 15 0 c9 0 16 5 16 10 0 6 -4 10 -9 10 -6 0 -13
-4 -16 -10z" />
    <path d="M9970 8940 c0 -5 7 -10 16 -10 l15 0 -6 10 c-3 6 -10 10 -16 10 -5 0
-9 -4 -9 -10z" />
    <path d="M7100 8924 l0 -15 10 6 c6 3 10 10 10 16 0 5 -4 9 -10 9 -5 0 -10 -7
-10 -16z" />
    <path d="M7146 8911 c-4 -7 -5 -15 -2 -18 9 -9 19 4 14 18 l-4 13 -8 -13z" />
    <path d="M8610 8905 c0 -8 -4 -15 -10 -15 -5 0 -10 -8 -10 -17 l0 -18 20 25
c22 28 25 40 10 40 -5 0 -10 -7 -10 -15z" />
    <path d="M8656 8891 c-4 -7 -5 -15 -2 -18 9 -9 19 4 14 18 l-4 13 -8 -13z" />
    <path d="M6375 8870 l-6 -10 15 0 c9 0 16 5 16 10 0 6 -4 10 -9 10 -6 0 -13
-4 -16 -10z" />
    <path d="M10090 8870 c0 -5 7 -10 16 -10 l15 0 -6 10 c-3 6 -10 10 -16 10 -5
0 -9 -4 -9 -10z" />
    <path d="M7060 8854 l0 -15 10 6 c6 3 10 10 10 16 0 5 -4 9 -10 9 -5 0 -10 -7
-10 -16z" />
    <path d="M6305 8830 l-6 -10 15 0 c9 0 16 5 16 10 0 6 -4 10 -9 10 -6 0 -13
-4 -16 -10z" />
    <path d="M10160 8830 c0 -5 7 -10 16 -10 l15 0 -6 10 c-3 6 -10 10 -16 10 -5
0 -9 -4 -9 -10z" />
    <path d="M6235 8790 l-6 -10 15 0 c9 0 16 5 16 10 0 6 -4 10 -9 10 -6 0 -13
-4 -16 -10z" />
    <path d="M7076 8791 c-4 -7 -5 -15 -2 -18 9 -9 19 4 14 18 l-4 13 -8 -13z" />
    <path d="M10230 8790 c0 -5 7 -10 16 -10 l15 0 -6 10 c-3 6 -10 10 -16 10 -5
0 -9 -4 -9 -10z" />
    <path d="M6176 8751 c-4 -7 -5 -15 -2 -18 9 -9 19 4 14 18 l-4 13 -8 -13z" />
    <path d="M10270 8744 l0 -15 10 6 c6 3 10 10 10 16 0 5 -4 9 -10 9 -5 0 -10
-7 -10 -16z" />
    <path d="M6990 8734 l0 -15 10 6 c6 3 10 10 10 16 0 5 -4 9 -10 9 -5 0 -10 -7
-10 -16z" />
    <path d="M8566 8741 c-4 -7 -5 -15 -2 -18 9 -9 19 4 14 18 l-4 13 -8 -13z" />
    <path d="M10320 8730 c0 -7 3 -10 7 -7 3 4 3 10 0 14 -4 3 -7 0 -7 -7z" />
    <path d="M7036 8721 c-4 -7 -5 -15 -2 -18 9 -9 19 4 14 18 l-4 13 -8 -13z" />
    <path d="M4660 7988 l0 -726 84 -144 c46 -78 120 -205 165 -282 44 -76 81
-139 81 -141 0 -1 63 -109 139 -241 77 -131 166 -285 198 -342 l58 -102 3 724
2 725 -66 113 c-37 62 -133 228 -214 368 -174 302 -442 763 -446 769 -2 2 -4
-322 -4 -721z" />
    <path d="M2927 8395 c-98 -170 -201 -348 -229 -395 -27 -47 -63 -107 -78 -135
-15 -27 -76 -133 -134 -234 l-106 -183 0 -721 0 -721 9 10 c5 5 62 101 126
214 65 113 155 268 200 345 46 77 153 262 239 411 l156 272 -2 723 -3 724
-178 -310z" />
    <path d="M8480 8684 l0 -15 10 6 c6 3 10 10 10 16 0 5 -4 9 -10 9 -5 0 -10 -7
-10 -16z" />
    <path d="M10230 8674 l0 -15 10 6 c6 3 10 10 10 16 0 5 -4 9 -10 9 -5 0 -10
-7 -10 -16z" />
    <path d="M6950 8664 l0 -15 10 6 c6 3 10 10 10 16 0 5 -4 9 -10 9 -5 0 -10 -7
-10 -16z" />
    <path d="M8526 8671 c-4 -7 -5 -15 -2 -18 9 -9 19 4 14 18 l-4 13 -8 -13z" />
    <path d="M10350 8666 c0 -9 5 -16 10 -16 6 0 10 4 10 9 0 6 -4 13 -10 16 l-10
6 0 -15z" />
    <path d="M6996 8651 c-4 -7 -5 -15 -2 -18 9 -9 19 4 14 18 l-4 13 -8 -13z" />
    <path d="M6097 8620 c-19 -28 -21 -40 -7 -40 6 0 10 6 10 14 0 8 5 16 12 18 6
2 9 10 6 18 l-4 14 -17 -24z" />
    <path d="M8440 8614 l0 -15 10 6 c6 3 10 10 10 16 0 5 -4 9 -10 9 -5 0 -10 -7
-10 -16z" />
    <path d="M10246 8611 c-4 -7 -5 -15 -2 -18 9 -9 19 4 14 18 l-4 13 -8 -13z" />
    <path d="M10390 8596 c0 -9 5 -16 10 -16 6 0 10 4 10 9 0 6 -4 13 -10 16 l-10
6 0 -15z" />
    <path d="M6900 8584 l0 -15 10 6 c6 3 10 10 10 16 0 5 -4 9 -10 9 -5 0 -10 -7
-10 -16z" />
    <path d="M10160 8554 l0 -15 10 6 c6 3 10 10 10 16 0 5 -4 9 -10 9 -5 0 -10
-7 -10 -16z" />
    <path d="M8456 8551 c-4 -7 -5 -15 -2 -18 9 -9 19 4 14 18 l-4 13 -8 -13z" />
    <path d="M10206 8541 c-4 -7 -5 -15 -2 -18 9 -9 19 4 14 18 l-4 13 -8 -13z" />
    <path d="M6860 8514 l0 -15 10 6 c6 3 10 10 10 16 0 5 -4 9 -10 9 -5 0 -10 -7
-10 -16z" />
    <path d="M6906 8501 c-4 -7 -5 -15 -2 -18 9 -9 19 4 14 18 l-4 13 -8 -13z" />
    <path d="M8370 8494 l0 -15 10 6 c6 3 10 10 10 16 0 5 -4 9 -10 9 -5 0 -10 -7
-10 -16z" />
    <path d="M10120 8484 l0 -15 10 6 c6 3 10 10 10 16 0 5 -4 9 -10 9 -5 0 -10
-7 -10 -16z" />
    <path d="M6016 8481 c-4 -7 -5 -15 -2 -18 9 -9 19 4 14 18 l-4 13 -8 -13z" />
    <path d="M8416 8481 c-4 -7 -5 -15 -2 -18 9 -9 19 4 14 18 l-4 13 -8 -13z" />
    <path d="M10460 8476 c0 -9 5 -16 10 -16 6 0 10 4 10 9 0 6 -4 13 -10 16 l-10
6 0 -15z" />
    <path d="M10160 8459 c-13 -24 -4 -41 10 -19 10 16 13 40 5 40 -2 0 -9 -9 -15
-21z" />
    <path d="M6810 8424 l0 -15 10 6 c6 3 10 10 10 16 0 5 -4 9 -10 9 -5 0 -10 -7
-10 -16z" />
    <path d="M6856 8411 c-4 -7 -5 -15 -2 -18 9 -9 19 4 14 18 l-4 13 -8 -13z" />
    <path d="M8320 8404 l0 -15 10 6 c6 3 10 10 10 16 0 5 -4 9 -10 9 -5 0 -10 -7
-10 -16z" />
    <path d="M10070 8394 l0 -15 10 6 c6 3 10 10 10 16 0 5 -4 9 -10 9 -5 0 -10
-7 -10 -16z" />
    <path d="M5966 8391 c-4 -7 -5 -15 -2 -18 9 -9 19 4 14 18 l-4 13 -8 -13z" />
    <path d="M8366 8391 c-4 -7 -5 -15 -2 -18 9 -9 19 4 14 18 l-4 13 -8 -13z" />
    <path d="M10510 8386 c0 -9 5 -16 10 -16 6 0 10 4 10 9 0 6 -4 13 -10 16 l-10
6 0 -15z" />
    <path d="M6770 8354 l0 -15 10 6 c6 3 10 10 10 16 0 5 -4 9 -10 9 -5 0 -10 -7
-10 -16z" />
    <path d="M8280 8334 l0 -15 10 6 c6 3 10 10 10 16 0 5 -4 9 -10 9 -5 0 -10 -7
-10 -16z" />
    <path d="M10030 8324 l0 -15 10 6 c6 3 10 10 10 16 0 5 -4 9 -10 9 -5 0 -10
-7 -10 -16z" />
    <path d="M5926 8321 c-4 -7 -5 -15 -2 -18 9 -9 19 4 14 18 l-4 13 -8 -13z" />
    <path d="M8326 8321 c-4 -7 -5 -15 -2 -18 9 -9 19 4 14 18 l-4 13 -8 -13z" />
    <path d="M10550 8316 c0 -9 5 -16 10 -16 6 0 10 4 10 9 0 6 -4 13 -10 16 l-10
6 0 -15z" />
    <path d="M6786 8291 c-4 -7 -5 -15 -2 -18 9 -9 19 4 14 18 l-4 13 -8 -13z" />
    <path d="M8240 8264 l0 -15 10 6 c6 3 10 10 10 16 0 5 -4 9 -10 9 -5 0 -10 -7
-10 -16z" />
    <path d="M10046 8261 c-4 -7 -5 -15 -2 -18 9 -9 19 4 14 18 l-4 13 -8 -13z" />
    <path d="M6695 8239 c-4 -6 -5 -13 -2 -16 7 -7 27 6 27 18 0 12 -17 12 -25 -2z" />
    <path d="M9960 8204 l0 -15 10 6 c6 3 10 10 10 16 0 5 -4 9 -10 9 -5 0 -10 -7
-10 -16z" />
    <path d="M6620 8190 c0 -5 4 -10 9 -10 6 0 13 5 16 10 l6 10 -15 0 c-9 0 -16
-4 -16 -10z" />
    <path d="M8325 8190 c3 -5 10 -10 16 -10 5 0 9 5 9 10 0 6 -7 10 -16 10 l-15
0 6 -10z" />
    <path d="M10006 8191 c-4 -7 -5 -15 -2 -18 9 -9 19 4 14 18 l-4 13 -8 -13z" />
    <path d="M8395 8150 c3 -5 10 -10 16 -10 5 0 9 5 9 10 0 6 -7 10 -16 10 l-15
0 6 -10z" />
    <path d="M9920 8134 l0 -15 10 6 c6 3 10 10 10 16 0 5 -4 9 -10 9 -5 0 -10 -7
-10 -16z" />
    <path d="M5816 8131 c-4 -7 -5 -15 -2 -18 9 -9 19 4 14 18 l-4 13 -8 -13z" />
    <path d="M10660 8126 c0 -9 5 -16 10 -16 6 0 10 4 10 9 0 6 -4 13 -10 16 l-10
6 0 -15z" />
    <path d="M8465 8110 c3 -5 10 -10 16 -10 5 0 9 5 9 10 0 6 -7 10 -16 10 l-15
0 6 -10z" />
    <path d="M6410 8070 c0 -5 4 -10 9 -10 6 0 13 5 16 10 l6 10 -15 0 c-9 0 -16
-4 -16 -10z" />
    <path d="M5776 8061 c-4 -7 -5 -15 -2 -18 9 -9 19 4 14 18 l-4 13 -8 -13z" />
    <path d="M10700 8055 c0 -8 7 -15 16 -15 l16 0 -12 15 c-7 8 -14 15 -16 15 -2
0 -4 -7 -4 -15z" />
    <path d="M8585 8040 c3 -5 10 -10 16 -10 5 0 9 5 9 10 0 6 -7 10 -16 10 l-15
0 6 -10z" />
    <path d="M6340 8030 c0 -5 4 -10 9 -10 6 0 13 5 16 10 l6 10 -15 0 c-9 0 -16
-4 -16 -10z" />
    <path d="M8510 8030 c0 -5 7 -10 16 -10 l15 0 -6 10 c-3 6 -10 10 -16 10 -5 0
-9 -4 -9 -10z" />
    <path d="M9896 8001 c-4 -7 -5 -15 -2 -18 9 -9 19 4 14 18 l-4 13 -8 -13z" />
    <path d="M8675 7990 c3 -5 10 -10 16 -10 5 0 9 5 9 10 0 6 -7 10 -16 10 l-15
0 6 -10z" />
    <path d="M9830 7984 l0 -15 10 6 c6 3 10 10 10 16 0 5 -4 9 -10 9 -5 0 -10 -7
-10 -16z" />
    <path d="M10750 7976 c0 -9 5 -16 10 -16 6 0 10 4 10 9 0 6 -4 13 -10 16 l-10
6 0 -15z" />
    <path d="M8745 7950 c3 -5 10 -10 16 -10 5 0 9 5 9 10 0 6 -7 10 -16 10 l-15
0 6 -10z" />
    <path d="M6150 7920 c0 -5 4 -10 9 -10 6 0 13 5 16 10 l6 10 -15 0 c-9 0 -16
-4 -16 -10z" />
    <path d="M10790 7906 c0 -9 5 -16 10 -16 6 0 10 4 10 9 0 6 -4 13 -10 16 l-10
6 0 -15z" />
    <path d="M8895 7860 c3 -5 10 -10 16 -10 5 0 9 5 9 10 0 6 -7 10 -16 10 l-15
0 6 -10z" />
    <path d="M5636 7821 c-4 -7 -5 -15 -2 -18 9 -9 19 4 14 18 l-4 13 -8 -13z" />
    <path d="M8965 7820 c3 -5 10 -10 16 -10 5 0 9 5 9 10 0 6 -7 10 -16 10 l-15
0 6 -10z" />
    <path d="M10840 7816 c0 -9 5 -16 10 -16 6 0 10 4 10 9 0 6 -4 13 -10 16 l-10
6 0 -15z" />
    <path d="M5910 7780 c0 -5 4 -10 9 -10 6 0 13 5 16 10 l6 10 -15 0 c-9 0 -16
-4 -16 -10z" />
    <path d="M9756 7761 c-4 -7 -5 -15 -2 -18 9 -9 19 4 14 18 l-4 13 -8 -13z" />
    <path d="M5840 7740 c0 -5 4 -10 9 -10 6 0 13 5 16 10 l6 10 -15 0 c-9 0 -16
-4 -16 -10z" />
    <path d="M9670 7704 l0 -15 10 6 c6 3 10 10 10 16 0 5 -4 9 -10 9 -5 0 -10 -7
-10 -16z" />
    <path d="M9175 7700 c3 -5 10 -10 16 -10 5 0 9 5 9 10 0 6 -7 10 -16 10 l-15
0 6 -10z" />
    <path d="M10910 7696 c0 -9 5 -16 10 -16 6 0 10 4 10 9 0 6 -4 13 -10 16 l-10
6 0 -15z" />
    <path d="M9716 7691 c-4 -7 -5 -15 -2 -18 9 -9 19 4 14 18 l-4 13 -8 -13z" />
    <path d="M9245 7660 c3 -5 10 -10 16 -10 5 0 9 5 9 10 0 6 -7 10 -16 10 l-15
0 6 -10z" />
    <path d="M9630 7634 l0 -15 10 6 c6 3 10 10 10 16 0 5 -4 9 -10 9 -5 0 -10 -7
-10 -16z" />
    <path d="M5526 7631 c-4 -7 -5 -15 -2 -18 9 -9 19 4 14 18 l-4 13 -8 -13z" />
    <path d="M10950 7626 c0 -9 5 -16 10 -16 6 0 10 4 10 9 0 6 -4 13 -10 16 l-10
6 0 -15z" />
    <path d="M5630 7620 c0 -5 4 -10 9 -10 6 0 13 5 16 10 l6 10 -15 0 c-9 0 -16
-4 -16 -10z" />
    <path d="M5560 7580 c0 -5 4 -10 9 -10 6 0 13 5 16 10 l6 10 -15 0 c-9 0 -16
-4 -16 -10z" />
    <path d="M9646 7571 c-4 -7 -5 -15 -2 -18 9 -9 19 4 14 18 l-4 13 -8 -13z" />
    <path d="M5484 7559 c-3 -6 -1 -16 5 -22 l11 -11 9 10 9 9 -13 12 -14 13 -7
-11z" />
    <path d="M10990 7556 c0 -9 5 -16 10 -16 6 0 10 4 10 9 0 6 -4 13 -10 16 l-10
6 0 -15z" />
    <path d="M9444 7545 c22 -17 36 -19 36 -6 0 10 -24 21 -43 21 -7 0 -3 -7 7
-15z" />
    <path d="M9560 7514 l0 -15 10 6 c6 3 10 10 10 16 0 5 -4 9 -10 9 -5 0 -10 -7
-10 -16z" />
    <path d="M9525 7500 c3 -5 10 -10 16 -10 5 0 9 5 9 10 0 6 -7 10 -16 10 l-15
0 6 -10z" />
    <path d="M9606 7501 c-4 -7 -5 -15 -2 -18 9 -9 19 4 14 18 l-4 13 -8 -13z" />
    <path d="M11010 7394 l0 -15 10 6 c6 3 10 10 10 16 0 5 -4 9 -10 9 -5 0 -10
-7 -10 -16z" />
    <path d="M8060 7366 c0 -9 5 -16 10 -16 6 0 10 4 10 9 0 6 -4 13 -10 16 l-10
6 0 -15z" />
    <path d="M9650 7341 c0 -6 5 -13 10 -16 l10 -6 0 15 c0 9 -4 16 -10 16 -5 0
-10 -4 -10 -9z" />
    <path d="M11026 7331 c-4 -7 -5 -15 -2 -18 9 -9 19 4 14 18 l-4 13 -8 -13z" />
    <path d="M8100 7303 c0 -19 11 -43 21 -43 13 0 11 14 -6 36 -8 10 -15 14 -15
7z" />
    <path d="M9700 7251 c0 -6 5 -13 10 -16 l10 -6 0 15 c0 9 -4 16 -10 16 -5 0
-10 -4 -10 -9z" />
    <path d="M10976 7241 c-4 -7 -5 -15 -2 -18 9 -9 19 4 14 18 l-4 13 -8 -13z" />
    <path d="M2971 6952 c-85 -147 -182 -314 -216 -372 -87 -147 -342 -592 -355
-621 l-11 -25 112 -194 c62 -107 145 -251 185 -320 40 -69 155 -268 255 -442
l183 -317 21 32 c12 18 102 172 200 342 97 171 199 346 225 390 27 44 104 178
173 297 l125 217 -142 246 c-433 753 -539 935 -568 982 l-33 53 -154 -268z" />
    <path d="M8150 7206 c0 -9 5 -16 10 -16 6 0 10 4 10 9 0 6 -4 13 -10 16 l-10
6 0 -15z" />
    <path d="M10890 7184 l0 -15 10 6 c6 3 10 10 10 16 0 5 -4 9 -10 9 -5 0 -10
-7 -10 -16z" />
    <path d="M9740 7181 c0 -6 5 -13 10 -16 l10 -6 0 15 c0 9 -4 16 -10 16 -5 0
-10 -4 -10 -9z" />
    <path d="M10936 7171 c-4 -7 -5 -15 -2 -18 9 -9 19 4 14 18 l-4 13 -8 -13z" />
    <path d="M10850 7114 l0 -15 10 6 c6 3 10 10 10 16 0 5 -4 9 -10 9 -5 0 -10
-7 -10 -16z" />
    <path d="M10896 7101 c-4 -7 -5 -15 -2 -18 9 -9 19 4 14 18 l-4 13 -8 -13z" />
    <path d="M8240 7056 c0 -9 5 -16 10 -16 6 0 10 4 10 9 0 6 -4 13 -10 16 l-10
6 0 -15z" />
    <path d="M9810 7061 c0 -6 5 -13 10 -16 l10 -6 0 15 c0 9 -4 16 -10 16 -5 0
-10 -4 -10 -9z" />
    <path d="M10810 7044 l0 -15 10 6 c6 3 10 10 10 16 0 5 -4 9 -10 9 -5 0 -10
-7 -10 -16z" />
    <path d="M8280 6986 c0 -9 5 -16 10 -16 6 0 10 4 10 9 0 6 -4 13 -10 16 l-10
6 0 -15z" />
    <path d="M9850 6991 c0 -6 5 -13 10 -16 l10 -6 0 15 c0 9 -4 16 -10 16 -5 0
-10 -4 -10 -9z" />
    <path d="M10826 6981 c-4 -7 -5 -15 -2 -18 9 -9 19 4 14 18 l-4 13 -8 -13z" />
    <path d="M10740 6924 l0 -15 10 6 c6 3 10 10 10 16 0 5 -4 9 -10 9 -5 0 -10
-7 -10 -16z" />
    <path d="M9900 6911 c0 -6 5 -13 10 -16 l10 -6 0 15 c0 9 -4 16 -10 16 -5 0
-10 -4 -10 -9z" />
    <path d="M10786 6911 c-4 -7 -5 -15 -2 -18 9 -9 19 4 14 18 l-4 13 -8 -13z" />
    <path d="M8350 6866 c0 -9 5 -16 10 -16 6 0 10 4 10 9 0 6 -4 13 -10 16 l-10
6 0 -15z" />
    <path d="M9940 6841 c0 -6 5 -13 10 -16 l10 -6 0 15 c0 9 -4 16 -10 16 -5 0
-10 -4 -10 -9z" />
    <path d="M8390 6796 c0 -9 5 -16 10 -16 6 0 10 4 10 9 0 6 -4 13 -10 16 l-10
6 0 -15z" />
    <path d="M10650 6774 l0 -15 10 6 c6 3 10 10 10 16 0 5 -4 9 -10 9 -5 0 -10
-7 -10 -16z" />
    <path d="M9980 6771 c0 -6 5 -13 10 -16 l10 -6 0 15 c0 9 -4 16 -10 16 -5 0
-10 -4 -10 -9z" />
    <path d="M10696 6761 c-4 -7 -5 -15 -2 -18 9 -9 19 4 14 18 l-4 13 -8 -13z" />
    <path d="M8430 6726 c0 -9 5 -16 10 -16 6 0 10 4 10 9 0 6 -4 13 -10 16 l-10
6 0 -15z" />
    <path d="M10606 6704 c-11 -28 -6 -39 9 -20 8 11 15 23 15 28 0 14 -18 9 -24
-8z" />
    <path d="M10030 6681 c0 -6 5 -13 10 -16 l10 -6 0 15 c0 9 -4 16 -10 16 -5 0
-10 -4 -10 -9z" />
    <path d="M10646 6671 c-4 -7 -5 -15 -2 -18 9 -9 19 4 14 18 l-4 13 -8 -13z" />
    <path d="M8480 6636 c0 -9 5 -16 10 -16 6 0 10 4 10 9 0 6 -4 13 -10 16 l-10
6 0 -15z" />
    <path d="M10560 6614 l0 -15 10 6 c6 3 10 10 10 16 0 5 -4 9 -10 9 -5 0 -10
-7 -10 -16z" />
    <path d="M10606 6601 c-4 -7 -5 -15 -2 -18 9 -9 19 4 14 18 l-4 13 -8 -13z" />
    <path d="M10100 6561 c0 -6 5 -13 10 -16 l10 -6 0 15 c0 9 -4 16 -10 16 -5 0
-10 -4 -10 -9z" />
    <path d="M10520 6544 l0 -15 10 6 c6 3 10 10 10 16 0 5 -4 9 -10 9 -5 0 -10
-7 -10 -16z" />
    <path d="M8550 6516 c0 -9 5 -16 10 -16 6 0 10 4 10 9 0 6 -4 13 -10 16 l-10
6 0 -15z" />
    <path d="M10140 6491 c0 -6 5 -13 10 -16 l10 -6 0 15 c0 9 -4 16 -10 16 -5 0
-10 -4 -10 -9z" />
    <path d="M10536 6481 c-4 -7 -5 -15 -2 -18 9 -9 19 4 14 18 l-4 13 -8 -13z" />
    <path d="M8590 6446 c0 -9 5 -16 10 -16 6 0 10 4 10 9 0 6 -4 13 -10 16 l-10
6 0 -15z" />
    <path d="M10450 6424 l0 -15 10 6 c6 3 10 10 10 16 0 5 -4 9 -10 9 -5 0 -10
-7 -10 -16z" />
    <path d="M10496 6411 c-4 -7 -5 -15 -2 -18 9 -9 19 4 14 18 l-4 13 -8 -13z" />
    <path d="M8640 6366 c0 -9 5 -16 10 -16 6 0 10 4 10 9 0 6 -4 13 -10 16 l-10
6 0 -15z" />
    <path d="M10410 6354 l0 -15 10 6 c6 3 10 10 10 16 0 5 -4 9 -10 9 -5 0 -10
-7 -10 -16z" />
    <path d="M8680 6296 c0 -9 5 -16 10 -16 6 0 10 4 10 9 0 6 -4 13 -10 16 l-10
6 0 -15z" />
    <path d="M10250 6301 c0 -6 5 -13 10 -16 l10 -6 0 15 c0 9 -4 16 -10 16 -5 0
-10 -4 -10 -9z" />
    <path d="M10290 6231 c0 -6 5 -13 10 -16 l10 -6 0 15 c0 9 -4 16 -10 16 -5 0
-10 -4 -10 -9z" />
    <path d="M10386 6221 c-4 -7 -5 -15 -2 -18 9 -9 19 4 14 18 l-4 13 -8 -13z" />
    <path d="M10346 6151 c-4 -7 -5 -15 -2 -18 9 -9 19 4 14 18 l-4 13 -8 -13z" />
    <path d="M3732 5641 c-87 -152 -207 -359 -266 -461 -59 -101 -118 -203 -132
-227 -88 -158 -159 -281 -172 -296 l-16 -17 10 -9 c5 -4 90 -54 189 -111 99
-57 232 -134 295 -171 326 -192 796 -456 802 -451 4 4 84 142 178 307 95 165
200 347 235 405 57 95 286 495 313 546 l11 22 -172 98 c-94 54 -237 136 -317
183 -164 96 -544 314 -697 401 l-102 58 -159 -277z" />
    <path d="M7775 5768 c-115 -66 -352 -202 -525 -302 -173 -101 -360 -208 -414
-239 l-100 -57 -64 -112 c-35 -62 -96 -167 -135 -233 -39 -66 -153 -262 -252
-435 -100 -173 -202 -350 -228 -392 -25 -43 -44 -78 -41 -78 6 0 588 333 779
445 77 46 214 125 305 177 l165 94 86 144 c47 80 162 277 255 438 93 161 217
377 277 479 59 102 106 187 105 189 -2 1 -97 -52 -213 -118z" />
    <path d="M8026 5881 c-4 -7 -5 -15 -2 -18 9 -9 19 4 14 18 l-4 13 -8 -13z" />
    <path d="M8100 5871 c0 -6 5 -13 10 -16 l10 -6 0 15 c0 9 -4 16 -10 16 -5 0
-10 -4 -10 -9z" />
    <path d="M8060 5846 c0 -9 5 -16 10 -16 6 0 10 4 10 9 0 6 -4 13 -10 16 l-10
6 0 -15z" />
    <path d="M10980 5824 l0 -15 10 6 c6 3 10 10 10 16 0 5 -4 9 -10 9 -5 0 -10
-7 -10 -16z" />
    <path d="M8140 5801 c0 -6 5 -13 10 -16 l10 -6 0 15 c0 9 -4 16 -10 16 -5 0
-10 -4 -10 -9z" />
    <path d="M7956 5761 c-4 -7 -5 -15 -2 -18 9 -9 19 4 14 18 l-4 13 -8 -13z" />
    <path d="M10940 5754 l0 -15 10 6 c6 3 10 10 10 16 0 5 -4 9 -10 9 -5 0 -10
-7 -10 -16z" />
    <path d="M8130 5726 c0 -9 5 -16 10 -16 6 0 10 4 10 9 0 6 -4 13 -10 16 l-10
6 0 -15z" />
    <path d="M7916 5691 c-4 -7 -5 -15 -2 -18 9 -9 19 4 14 18 l-4 13 -8 -13z" />
    <path d="M8170 5656 c0 -9 5 -16 10 -16 6 0 10 4 10 9 0 6 -4 13 -10 16 l-10
6 0 -15z" />
    <path d="M8230 5651 c0 -6 5 -13 10 -16 l10 -6 0 15 c0 9 -4 16 -10 16 -5 0
-10 -4 -10 -9z" />
    <path d="M10870 5634 l0 -15 10 6 c6 3 10 10 10 16 0 5 -4 9 -10 9 -5 0 -10
-7 -10 -16z" />
    <path d="M8220 5576 c0 -9 5 -16 10 -16 6 0 10 4 10 9 0 6 -4 13 -10 16 l-10
6 0 -15z" />
    <path d="M10830 5564 l0 -15 10 6 c6 3 10 10 10 16 0 5 -4 9 -10 9 -5 0 -10
-7 -10 -16z" />
    <path d="M8270 5486 c0 -9 5 -16 10 -16 6 0 10 4 10 9 0 6 -4 13 -10 16 l-10
6 0 -15z" />
    <path d="M10780 5474 l0 -15 10 6 c6 3 10 10 10 16 0 5 -4 9 -10 9 -5 0 -10
-7 -10 -16z" />
    <path d="M7776 5451 c-4 -7 -5 -15 -2 -18 9 -9 19 4 14 18 l-4 13 -8 -13z" />
    <path d="M8350 5441 c0 -6 5 -13 10 -16 l10 -6 0 15 c0 9 -4 16 -10 16 -5 0
-10 -4 -10 -9z" />
    <path d="M8310 5416 c0 -9 5 -16 10 -16 6 0 10 4 10 9 0 6 -4 13 -10 16 l-10
6 0 -15z" />
    <path d="M10740 5404 l0 -15 10 6 c6 3 10 10 10 16 0 5 -4 9 -10 9 -5 0 -10
-7 -10 -16z" />
    <path d="M8390 5371 c0 -6 5 -13 10 -16 l10 -6 0 15 c0 9 -4 16 -10 16 -5 0
-10 -4 -10 -9z" />
    <path d="M8350 5346 c0 -9 5 -16 10 -16 6 0 10 4 10 9 0 6 -4 13 -10 16 l-10
6 0 -15z" />
    <path d="M10690 5324 l0 -15 10 6 c6 3 10 10 10 16 0 5 -4 9 -10 9 -5 0 -10
-7 -10 -16z" />
    <path d="M8430 5301 c0 -6 5 -13 10 -16 l10 -6 0 15 c0 9 -4 16 -10 16 -5 0
-10 -4 -10 -9z" />
    <path d="M7666 5261 c-4 -7 -5 -15 -2 -18 9 -9 19 4 14 18 l-4 13 -8 -13z" />
    <path d="M10650 5254 l0 -15 10 6 c6 3 10 10 10 16 0 5 -4 9 -10 9 -5 0 -10
-7 -10 -16z" />
    <path d="M8420 5226 c0 -9 5 -16 10 -16 6 0 10 4 10 9 0 6 -4 13 -10 16 l-10
6 0 -15z" />
    <path d="M7626 5191 c-4 -7 -5 -15 -2 -18 9 -9 19 4 14 18 l-4 13 -8 -13z" />
    <path d="M8500 5181 c0 -6 5 -13 10 -16 l10 -6 0 15 c0 9 -4 16 -10 16 -5 0
-10 -4 -10 -9z" />
    <path d="M5031 4853 c-100 -175 -208 -361 -238 -413 -194 -333 -313 -543 -313
-551 l0 -9 737 2 737 3 80 135 c150 258 178 305 203 350 14 25 82 143 152 263
69 119 159 274 198 343 40 69 82 141 94 160 l21 34 -744 0 -744 0 -183 -317z" />
    <path d="M8460 5156 c0 -9 5 -16 10 -16 6 0 10 4 10 9 0 6 -4 13 -10 16 l-10
6 0 -15z" />
    <path d="M10580 5134 l0 -15 10 6 c6 3 10 10 10 16 0 5 -4 9 -10 9 -5 0 -10
-7 -10 -16z" />
    <path d="M8540 5111 c0 -6 5 -13 10 -16 l10 -6 0 15 c0 9 -4 16 -10 16 -5 0
-10 -4 -10 -9z" />
    <path d="M10540 5064 l0 -15 10 6 c6 3 10 10 10 16 0 5 -4 9 -10 9 -5 0 -10
-7 -10 -16z" />
    <path d="M7516 5001 c-4 -7 -5 -15 -2 -18 9 -9 19 4 14 18 l-4 13 -8 -13z" />
    <path d="M10500 4994 l0 -15 10 6 c6 3 10 10 10 16 0 5 -4 9 -10 9 -5 0 -10
-7 -10 -16z" />
    <path d="M8570 4966 c0 -9 5 -16 10 -16 6 0 10 4 10 9 0 6 -4 13 -10 16 l-10
6 0 -15z" />
    <path d="M8630 4962 c0 -5 7 -17 15 -28 15 -19 20 -8 9 20 -6 17 -24 22 -24 8z" />
    <path d="M7466 4911 c-4 -7 -5 -15 -2 -18 9 -9 19 4 14 18 l-4 13 -8 -13z" />
    <path d="M8680 4871 c0 -6 5 -13 10 -16 l10 -6 0 15 c0 9 -4 16 -10 16 -5 0
-10 -4 -10 -9z" />
    <path d="M7426 4841 c-4 -7 -5 -15 -2 -18 9 -9 19 4 14 18 l-4 13 -8 -13z" />
    <path d="M8720 4801 c0 -6 5 -13 10 -16 l10 -6 0 15 c0 9 -4 16 -10 16 -5 0
-10 -4 -10 -9z" />
    <path d="M10380 4784 l0 -15 10 6 c6 3 10 10 10 16 0 5 -4 9 -10 9 -5 0 -10
-7 -10 -16z" />
    <path d="M8710 4726 c0 -9 5 -16 10 -16 6 0 10 4 10 9 0 6 -4 13 -10 16 l-10
6 0 -15z" />
    <path d="M10340 4714 l0 -15 10 6 c6 3 10 10 10 16 0 5 -4 9 -10 9 -5 0 -10
-7 -10 -16z" />
    <path d="M7336 4691 c-4 -7 -5 -15 -2 -18 9 -9 19 4 14 18 l-4 13 -8 -13z" />
    <path d="M8750 4656 c0 -9 5 -16 10 -16 6 0 10 4 10 9 0 6 -4 13 -10 16 l-10
6 0 -15z" />
    <path d="M8760 4614 l0 -15 10 6 c6 3 10 10 10 16 0 5 -4 9 -10 9 -5 0 -10 -7
-10 -16z" />
    <path d="M7320 4591 c0 -6 5 -13 10 -16 l10 -6 0 15 c0 9 -4 16 -10 16 -5 0
-10 -4 -10 -9z" />
    <path d="M3180 4571 c0 -5 5 -13 10 -16 6 -3 10 -2 10 4 0 5 -4 13 -10 16 -5
3 -10 2 -10 -4z" />
    <path d="M7280 4566 c0 -9 5 -16 10 -16 6 0 10 4 10 9 0 6 -4 13 -10 16 l-10
6 0 -15z" />
    <path d="M8720 4544 l0 -15 10 6 c6 3 10 10 10 16 0 5 -4 9 -10 9 -5 0 -10 -7
-10 -16z" />
    <path d="M3220 4540 c0 -5 7 -10 16 -10 l15 0 -6 10 c-3 6 -10 10 -16 10 -5 0
-9 -4 -9 -10z" />
    <path d="M7165 4540 l-6 -10 15 0 c9 0 16 5 16 10 0 6 -4 10 -9 10 -6 0 -13
-4 -16 -10z" />
    <path d="M3220 4501 c0 -6 5 -13 10 -16 l10 -6 0 15 c0 9 -4 16 -10 16 -5 0
-10 -4 -10 -9z" />
    <path d="M7095 4500 l-6 -10 15 0 c9 0 16 5 16 10 0 6 -4 10 -9 10 -6 0 -13
-4 -16 -10z" />
    <path d="M3340 4470 c0 -5 7 -10 16 -10 l15 0 -6 10 c-3 6 -10 10 -16 10 -5 0
-9 -4 -9 -10z" />
    <path d="M7410 4441 c0 -6 5 -13 10 -16 l10 -6 0 15 c0 9 -4 16 -10 16 -5 0
-10 -4 -10 -9z" />
    <path d="M3410 4430 c0 -5 7 -10 16 -10 l15 0 -6 10 c-3 6 -10 10 -16 10 -5 0
-9 -4 -9 -10z" />
    <path d="M6975 4430 l-6 -10 15 0 c9 0 16 5 16 10 0 6 -4 10 -9 10 -6 0 -13
-4 -16 -10z" />
    <path d="M8650 4424 l0 -15 10 6 c6 3 10 10 10 16 0 5 -4 9 -10 9 -5 0 -10 -7
-10 -16z" />
    <path d="M7370 4416 c0 -9 5 -16 10 -16 6 0 10 4 10 9 0 6 -4 13 -10 16 l-10
6 0 -15z" />
    <path d="M6869 4370 l-24 -19 18 -1 c9 0 17 5 17 10 0 6 7 10 15 10 8 0 15 5
15 10 0 16 -16 12 -41 -10z" />
    <path d="M7460 4351 c0 -6 5 -13 10 -16 l10 -6 0 15 c0 9 -4 16 -10 16 -5 0
-10 -4 -10 -9z" />
    <path d="M3560 4341 c0 -10 24 -21 43 -21 7 0 3 7 -7 15 -22 17 -36 19 -36 6z" />
    <path d="M7420 4326 c0 -9 5 -16 10 -16 6 0 10 4 10 9 0 6 -4 13 -10 16 l-10
6 0 -15z" />
    <path d="M8580 4304 l0 -15 10 6 c6 3 10 10 10 16 0 5 -4 9 -10 9 -5 0 -10 -7
-10 -16z" />
    <path d="M3650 4290 c0 -5 7 -10 16 -10 l15 0 -6 10 c-3 6 -10 10 -16 10 -5 0
-9 -4 -9 -10z" />
    <path d="M6735 4290 l-6 -10 15 0 c9 0 16 5 16 10 0 6 -4 10 -9 10 -6 0 -13
-4 -16 -10z" />
    <path d="M7500 4281 c0 -6 5 -13 10 -16 l10 -6 0 15 c0 9 -4 16 -10 16 -5 0
-10 -4 -10 -9z" />
    <path d="M6665 4250 l-6 -10 15 0 c9 0 16 5 16 10 0 6 -4 10 -9 10 -6 0 -13
-4 -16 -10z" />
    <path d="M3380 4221 c0 -6 5 -13 10 -16 l10 -6 0 15 c0 9 -4 16 -10 16 -5 0
-10 -4 -10 -9z" />
    <path d="M6595 4210 l-6 -10 15 0 c9 0 16 5 16 10 0 6 -4 10 -9 10 -6 0 -13
-4 -16 -10z" />
    <path d="M8510 4184 l0 -15 10 6 c6 3 10 10 10 16 0 5 -4 9 -10 9 -5 0 -10 -7
-10 -16z" />
    <path d="M3840 4180 c0 -5 7 -10 16 -10 l15 0 -6 10 c-3 6 -10 10 -16 10 -5 0
-9 -4 -9 -10z" />
    <path d="M6505 4160 l-6 -10 15 0 c9 0 16 5 16 10 0 6 -4 10 -9 10 -6 0 -13
-4 -16 -10z" />
    <path d="M3420 4151 c0 -6 5 -13 10 -16 l10 -6 0 15 c0 9 -4 16 -10 16 -5 0
-10 -4 -10 -9z" />
    <path d="M3910 4140 c0 -5 7 -10 16 -10 l15 0 -6 10 c-3 6 -10 10 -16 10 -5 0
-9 -4 -9 -10z" />
    <path d="M7530 4136 c0 -9 5 -16 10 -16 6 0 10 4 10 9 0 6 -4 13 -10 16 l-10
6 0 -15z" />
    <path d="M8470 4114 l0 -15 10 6 c6 3 10 10 10 16 0 5 -4 9 -10 9 -5 0 -10 -7
-10 -16z" />
    <path d="M4000 4090 c0 -5 7 -10 16 -10 l15 0 -6 10 c-3 6 -10 10 -16 10 -5 0
-9 -4 -9 -10z" />
    <path d="M6385 4090 l-6 -10 15 0 c9 0 16 5 16 10 0 6 -4 10 -9 10 -6 0 -13
-4 -16 -10z" />
    <path d="M7610 4091 c0 -6 5 -13 10 -16 l10 -6 0 15 c0 9 -4 16 -10 16 -5 0
-10 -4 -10 -9z" />
    <path d="M7570 4066 c0 -9 5 -16 10 -16 6 0 10 4 10 9 0 6 -4 13 -10 16 l-10
6 0 -15z" />
    <path d="M6315 4050 l-6 -10 15 0 c9 0 16 5 16 10 0 6 -4 10 -9 10 -6 0 -13
-4 -16 -10z" />
    <path d="M8430 4044 l0 -15 10 6 c6 3 10 10 10 16 0 5 -4 9 -10 9 -5 0 -10 -7
-10 -16z" />
    <path d="M3490 4031 c0 -6 5 -13 10 -16 l10 -6 0 15 c0 9 -4 16 -10 16 -5 0
-10 -4 -10 -9z" />
    <path d="M4120 4020 c0 -5 7 -10 16 -10 l15 0 -6 10 c-3 6 -10 10 -16 10 -5 0
-9 -4 -9 -10z" />
    <path d="M7650 4021 c0 -6 5 -13 10 -16 l10 -6 0 15 c0 9 -4 16 -10 16 -5 0
-10 -4 -10 -9z" />
    <path d="M4190 3980 c0 -5 7 -10 16 -10 l15 0 -6 10 c-3 6 -10 10 -16 10 -5 0
-9 -4 -9 -10z" />
    <path d="M3530 3961 c0 -6 5 -13 10 -16 l10 -6 0 15 c0 9 -4 16 -10 16 -5 0
-10 -4 -10 -9z" />
    <path d="M7640 3946 c0 -9 5 -16 10 -16 6 0 10 4 10 9 0 6 -4 13 -10 16 l-10
6 0 -15z" />
    <path d="M4260 3940 c0 -5 7 -10 16 -10 l15 0 -6 10 c-3 6 -10 10 -16 10 -5 0
-9 -4 -9 -10z" />
    <path d="M6125 3940 l-6 -10 15 0 c9 0 16 5 16 10 0 6 -4 10 -9 10 -6 0 -13
-4 -16 -10z" />
    <path d="M8360 3924 l0 -15 10 6 c6 3 10 10 10 16 0 5 -4 9 -10 9 -5 0 -10 -7
-10 -16z" />
    <path d="M7720 3901 c0 -6 5 -13 10 -16 l10 -6 0 15 c0 9 -4 16 -10 16 -5 0
-10 -4 -10 -9z" />
    <path d="M3570 3891 c0 -6 5 -13 10 -16 l10 -6 0 15 c0 9 -4 16 -10 16 -5 0
-10 -4 -10 -9z" />
    <path d="M6035 3890 l-6 -10 15 0 c9 0 16 5 16 10 0 6 -4 10 -9 10 -6 0 -13
-4 -16 -10z" />
    <path d="M7680 3876 c0 -9 5 -16 10 -16 6 0 10 4 10 9 0 6 -4 13 -10 16 l-10
6 0 -15z" />
    <path d="M4380 3870 c0 -5 7 -10 16 -10 l15 0 -6 10 c-3 6 -10 10 -16 10 -5 0
-9 -4 -9 -10z" />
    <path d="M8320 3854 l0 -15 10 6 c6 3 10 10 10 16 0 5 -4 9 -10 9 -5 0 -10 -7
-10 -16z" />
    <path d="M4480 3841 c0 -6 5 -13 10 -16 l10 -6 0 15 c0 9 -4 16 -10 16 -5 0
-10 -4 -10 -9z" />
    <path d="M7760 3831 c0 -6 5 -13 10 -16 l10 -6 0 15 c0 9 -4 16 -10 16 -5 0
-10 -4 -10 -9z" />
    <path d="M6010 3821 c0 -6 5 -13 10 -16 l10 -6 0 15 c0 9 -4 16 -10 16 -5 0
-10 -4 -10 -9z" />
    <path d="M3620 3811 c0 -6 5 -13 10 -16 l10 -6 0 15 c0 9 -4 16 -10 16 -5 0
-10 -4 -10 -9z" />
    <path d="M7720 3813 c0 -19 11 -43 21 -43 13 0 11 14 -6 36 -8 10 -15 14 -15
7z" />
    <path d="M5980 3776 c0 -9 5 -16 10 -16 6 0 10 4 10 9 0 6 -4 13 -10 16 l-10
6 0 -15z" />
    <path d="M7790 3781 c0 -6 5 -13 10 -16 l10 -6 0 15 c0 9 -4 16 -10 16 -5 0
-10 -4 -10 -9z" />
    <path d="M8270 3764 l0 -15 10 6 c6 3 10 10 10 16 0 5 -4 9 -10 9 -5 0 -10 -7
-10 -16z" />
    <path d="M4530 3751 c0 -6 5 -13 10 -16 l10 -6 0 15 c0 9 -4 16 -10 16 -5 0
-10 -4 -10 -9z" />
    <path d="M6060 3731 c0 -6 5 -13 10 -16 l10 -6 0 15 c0 9 -4 16 -10 16 -5 0
-10 -4 -10 -9z" />
    <path d="M3670 3721 c0 -6 5 -13 10 -16 l10 -6 0 15 c0 9 -4 16 -10 16 -5 0
-10 -4 -10 -9z" />
    <path d="M7780 3706 c0 -9 5 -16 10 -16 6 0 10 4 10 9 0 6 -4 13 -10 16 l-10
6 0 -15z" />
    <path d="M4520 3676 c0 -9 5 -16 10 -16 6 0 10 4 10 9 0 6 -4 13 -10 16 l-10
6 0 -15z" />
    <path d="M6050 3656 c0 -9 5 -16 10 -16 6 0 10 4 10 9 0 6 -4 13 -10 16 l-10
6 0 -15z" />
    <path d="M7860 3661 c0 -6 5 -13 10 -16 l10 -6 0 15 c0 9 -4 16 -10 16 -5 0
-10 -4 -10 -9z" />
    <path d="M3710 3651 c0 -6 5 -13 10 -16 l10 -6 0 15 c0 9 -4 16 -10 16 -5 0
-10 -4 -10 -9z" />
    <path d="M6110 3651 c0 -6 5 -13 10 -16 l10 -6 0 15 c0 9 -4 16 -10 16 -5 0
-10 -4 -10 -9z" />
    <path d="M7820 3636 c0 -9 5 -16 10 -16 6 0 10 4 10 9 0 6 -4 13 -10 16 l-10
6 0 -15z" />
    <path d="M4600 3631 c0 -6 5 -13 10 -16 l10 -6 0 15 c0 9 -4 16 -10 16 -5 0
-10 -4 -10 -9z" />
    <path d="M8180 3614 l0 -16 15 12 c8 7 15 14 15 16 0 2 -7 4 -15 4 -8 0 -15
-7 -15 -16z" />
    <path d="M4560 3606 c0 -9 5 -16 10 -16 6 0 10 4 10 9 0 6 -4 13 -10 16 l-10
6 0 -15z" />
    <path d="M7900 3591 c0 -6 5 -13 10 -16 l10 -6 0 15 c0 9 -4 16 -10 16 -5 0
-10 -4 -10 -9z" />
    <path d="M6150 3581 c0 -6 5 -13 10 -16 l10 -6 0 15 c0 9 -4 16 -10 16 -5 0
-10 -4 -10 -9z" />
    <path d="M7860 3566 c0 -9 5 -16 10 -16 6 0 10 4 10 9 0 6 -4 13 -10 16 l-10
6 0 -15z" />
    <path d="M4640 3561 c0 -6 5 -13 10 -16 l10 -6 0 15 c0 9 -4 16 -10 16 -5 0
-10 -4 -10 -9z" />
    <path d="M4600 3536 c0 -9 5 -16 10 -16 6 0 10 4 10 9 0 6 -4 13 -10 16 l-10
6 0 -15z" />
    <path d="M3780 3531 c0 -6 5 -13 10 -16 l10 -6 0 15 c0 9 -4 16 -10 16 -5 0
-10 -4 -10 -9z" />
    <path d="M9650 3524 l0 -15 10 6 c6 3 10 10 10 16 0 5 -4 9 -10 9 -5 0 -10 -7
-10 -16z" />
    <path d="M7940 3521 c0 -6 5 -13 10 -16 l10 -6 0 15 c0 9 -4 16 -10 16 -5 0
-10 -4 -10 -9z" />
    <path d="M6140 3506 c0 -9 5 -16 10 -16 6 0 10 4 10 9 0 6 -4 13 -10 16 l-10
6 0 -15z" />
    <path d="M4680 3491 c0 -6 5 -13 10 -16 l10 -6 0 15 c0 9 -4 16 -10 16 -5 0
-10 -4 -10 -9z" />
    <path d="M3820 3461 c0 -6 5 -13 10 -16 l10 -6 0 15 c0 9 -4 16 -10 16 -5 0
-10 -4 -10 -9z" />
    <path d="M6220 3461 c0 -6 5 -13 10 -16 l10 -6 0 15 c0 9 -4 16 -10 16 -5 0
-10 -4 -10 -9z" />
    <path d="M7930 3446 c0 -9 5 -16 10 -16 6 0 10 4 10 9 0 6 -4 13 -10 16 l-10
6 0 -15z" />
    <path d="M6180 3436 c0 -9 5 -16 10 -16 6 0 10 4 10 9 0 6 -4 13 -10 16 l-10
6 0 -15z" />
    <path d="M8070 3424 l0 -15 10 6 c6 3 10 10 10 16 0 5 -4 9 -10 9 -5 0 -10 -7
-10 -16z" />
    <path d="M4670 3416 c0 -9 5 -16 10 -16 6 0 10 4 10 9 0 6 -4 13 -10 16 l-10
6 0 -15z" />
    <path d="M8010 3401 c0 -6 5 -13 10 -16 l10 -6 0 15 c0 9 -4 16 -10 16 -5 0
-10 -4 -10 -9z" />
    <path d="M3860 3391 c0 -6 5 -13 10 -16 l10 -6 0 15 c0 9 -4 16 -10 16 -5 0
-10 -4 -10 -9z" />
    <path d="M6260 3391 c0 -6 5 -13 10 -16 l10 -6 0 15 c0 9 -4 16 -10 16 -5 0
-10 -4 -10 -9z" />
    <path d="M7970 3376 c0 -9 5 -16 10 -16 6 0 10 4 10 9 0 6 -4 13 -10 16 l-10
6 0 -15z" />
    <path d="M4750 3371 c0 -6 5 -13 10 -16 l10 -6 0 15 c0 9 -4 16 -10 16 -5 0
-10 -4 -10 -9z" />
    <path d="M8035 3360 c3 -5 8 -10 11 -10 2 0 4 5 4 10 0 6 -5 10 -11 10 -5 0
-7 -4 -4 -10z" />
    <path d="M4710 3346 c0 -9 5 -16 10 -16 6 0 10 4 10 9 0 6 -4 13 -10 16 l-10
6 0 -15z" />
    <path d="M4790 3301 c0 -6 5 -13 10 -16 l10 -6 0 15 c0 9 -4 16 -10 16 -5 0
-10 -4 -10 -9z" />
    <path d="M7890 3260 c0 -5 4 -10 9 -10 6 0 13 5 16 10 l6 10 -15 0 c-9 0 -16
-4 -16 -10z" />
    <path d="M6290 3246 c0 -9 5 -16 10 -16 6 0 10 4 10 9 0 6 -4 13 -10 16 l-10
6 0 -15z" />
    <path d="M4100 3210 c28 -22 40 -25 40 -10 0 6 -7 10 -15 10 -8 0 -15 5 -15
10 0 6 -8 10 -17 10 l-18 0 25 -20z" />
    <path d="M4830 3226 c0 -2 7 -9 15 -16 l15 -12 0 16 c0 9 -7 16 -15 16 -8 0
-15 -2 -15 -4z" />
    <path d="M7820 3220 c0 -5 4 -10 9 -10 6 0 13 5 16 10 l6 10 -15 0 c-9 0 -16
-4 -16 -10z" />
    <path d="M6340 3156 c0 -9 5 -16 10 -16 6 0 10 4 10 9 0 6 -4 13 -10 16 l-10
6 0 -15z" />
    <path d="M4235 3130 c3 -5 10 -10 16 -10 5 0 9 5 9 10 0 6 -7 10 -16 10 l-15
0 6 -10z" />
    <path d="M4890 3131 c0 -6 5 -13 10 -16 l10 -6 0 15 c0 9 -4 16 -10 16 -5 0
-10 -4 -10 -9z" />
    <path d="M7650 3120 c0 -5 4 -10 9 -10 6 0 13 5 16 10 l6 10 -15 0 c-9 0 -16
-4 -16 -10z" />
    <path d="M4850 3106 c0 -9 5 -16 10 -16 6 0 10 4 10 9 0 6 -4 13 -10 16 l-10
6 0 -15z" />
    <path d="M6420 3111 c0 -6 5 -13 10 -16 l10 -6 0 15 c0 9 -4 16 -10 16 -5 0
-10 -4 -10 -9z" />
    <path d="M4305 3090 c3 -5 10 -10 16 -10 5 0 9 5 9 10 0 6 -7 10 -16 10 l-15
0 6 -10z" />
    <path d="M6380 3086 c0 -9 5 -16 10 -16 6 0 10 4 10 9 0 6 -4 13 -10 16 l-10
6 0 -15z" />
    <path d="M7580 3080 c0 -5 4 -10 9 -10 6 0 13 5 16 10 l6 10 -15 0 c-9 0 -16
-4 -16 -10z" />
    <path d="M4930 3061 c0 -6 5 -13 10 -16 l10 -6 0 15 c0 9 -4 16 -10 16 -5 0
-10 -4 -10 -9z" />
    <path d="M6460 3041 c0 -6 5 -13 10 -16 l10 -6 0 15 c0 9 -4 16 -10 16 -5 0
-10 -4 -10 -9z" />
    <path d="M7460 3010 c0 -5 4 -10 9 -10 6 0 13 5 16 10 l6 10 -15 0 c-9 0 -16
-4 -16 -10z" />
    <path d="M6450 2966 c0 -9 5 -16 10 -16 6 0 10 4 10 9 0 6 -4 13 -10 16 l-10
6 0 -15z" />
    <path d="M7390 2970 c0 -5 4 -10 9 -10 6 0 13 5 16 10 l6 10 -15 0 c-9 0 -16
-4 -16 -10z" />
    <path d="M4585 2930 c3 -5 10 -10 16 -10 5 0 9 5 9 10 0 6 -7 10 -16 10 l-15
0 6 -10z" />
    <path d="M4960 2916 c0 -9 5 -16 10 -16 6 0 10 4 10 9 0 6 -4 13 -10 16 l-10
6 0 -15z" />
    <path d="M7300 2920 c0 -5 4 -10 9 -10 6 0 13 5 16 10 l6 10 -15 0 c-9 0 -16
-4 -16 -10z" />
    <path d="M6490 2896 c0 -9 5 -16 10 -16 6 0 10 4 10 9 0 6 -4 13 -10 16 l-10
6 0 -15z" />
    <path d="M4655 2890 c3 -5 10 -10 16 -10 5 0 9 5 9 10 0 6 -7 10 -16 10 l-15
0 6 -10z" />
    <path d="M6550 2891 c0 -6 5 -13 10 -16 l10 -6 0 15 c0 9 -4 16 -10 16 -5 0
-10 -4 -10 -9z" />
    <path d="M7230 2880 c0 -5 4 -10 9 -10 6 0 13 5 16 10 l6 10 -15 0 c-9 0 -16
-4 -16 -10z" />
    <path d="M5040 2871 c0 -6 5 -13 10 -16 l10 -6 0 15 c0 9 -4 16 -10 16 -5 0
-10 -4 -10 -9z" />
    <path d="M5000 2846 c0 -9 5 -16 10 -16 6 0 10 4 10 9 0 6 -4 13 -10 16 l-10
6 0 -15z" />
    <path d="M4775 2820 c3 -5 10 -10 16 -10 5 0 9 5 9 10 0 6 -7 10 -16 10 l-15
0 6 -10z" />
    <path d="M7110 2810 c0 -5 4 -10 9 -10 6 0 13 5 16 10 l6 10 -15 0 c-9 0 -16
-4 -16 -10z" />
    <path d="M5080 2801 c0 -6 5 -13 10 -16 l10 -6 0 15 c0 9 -4 16 -10 16 -5 0
-10 -4 -10 -9z" />
    <path d="M4865 2770 c3 -5 10 -10 16 -10 5 0 9 5 9 10 0 6 -7 10 -16 10 l-15
0 6 -10z" />
    <path d="M7040 2770 c0 -5 4 -10 9 -10 6 0 13 5 16 10 l6 10 -15 0 c-9 0 -16
-4 -16 -10z" />
    <path d="M6580 2746 c0 -9 5 -16 10 -16 6 0 10 4 10 9 0 6 -4 13 -10 16 l-10
6 0 -15z" />
    <path d="M4935 2730 c3 -5 10 -10 16 -10 5 0 9 5 9 10 0 6 -7 10 -16 10 l-15
0 6 -10z" />
    <path d="M6660 2701 c0 -6 5 -13 10 -16 l10 -6 0 15 c0 9 -4 16 -10 16 -5 0
-10 -4 -10 -9z" />
    <path d="M5005 2690 c3 -5 10 -10 16 -10 5 0 9 5 9 10 0 6 -7 10 -16 10 l-15
0 6 -10z" />
    <path d="M6620 2676 c0 -9 5 -16 10 -16 6 0 10 4 10 9 0 6 -4 13 -10 16 l-10
6 0 -15z" />
    <path d="M5110 2656 c0 -9 5 -16 10 -16 6 0 10 4 10 9 0 6 -4 13 -10 16 l-10
6 0 -15z" />
    <path d="M6700 2632 c0 -5 7 -17 15 -28 15 -19 20 -8 9 20 -6 17 -24 22 -24 8z" />
    <path d="M6670 2586 c0 -9 5 -16 10 -16 6 0 10 4 10 9 0 6 -4 13 -10 16 l-10
6 0 -15z" />
  </g>
  <g transform="translate(0.000000,1341.000000) scale(0.100000,-0.100000)" fill="#00a988" stroke="none">
    <path d="M7477 9483 c-20 -39 -52 -95 -81 -142 -15 -22 -26 -45 -26 -51 0 -5
-4 -10 -10 -10 -5 0 -10 -4 -10 -10 0 -5 -15 -33 -33 -62 -19 -29 -50 -84 -71
-121 -20 -37 -46 -83 -56 -102 -11 -19 -29 -52 -41 -72 -12 -21 -25 -42 -29
-48 -4 -5 -19 -30 -32 -55 -14 -25 -35 -62 -47 -82 -11 -21 -30 -53 -40 -72
-11 -19 -32 -53 -46 -76 -15 -23 -38 -63 -52 -88 -56 -100 -63 -112 -87 -151
-15 -22 -26 -43 -26 -47 0 -3 -9 -19 -21 -35 l-20 -29 745 0 745 0 14 28 c7
15 24 45 37 67 23 41 58 102 93 165 10 19 23 40 27 45 4 6 19 30 32 55 38 68
60 107 112 193 25 43 46 81 46 84 0 2 13 23 29 46 15 23 43 69 61 102 32 57
45 80 89 159 11 19 31 52 44 73 13 21 37 63 54 93 58 107 75 135 84 144 5 6 9
14 9 18 0 4 -333 8 -739 8 l-740 0 -14 -27z" />
    <path d="M8991 9471 c-12 -16 -21 -32 -21 -35 0 -3 -15 -29 -33 -58 -19 -29
-47 -78 -64 -108 -48 -88 -75 -134 -83 -145 -4 -5 -22 -37 -40 -70 -18 -33
-42 -75 -52 -92 -10 -18 -27 -50 -39 -70 -12 -21 -27 -45 -34 -53 -7 -8 -26
-40 -42 -70 -45 -83 -74 -134 -83 -145 -4 -5 -19 -30 -32 -55 -75 -135 -140
-249 -177 -311 l-21 -36 24 -17 c14 -9 28 -16 30 -16 3 0 29 -14 58 -31 72
-43 106 -63 223 -129 152 -86 170 -97 215 -125 23 -14 57 -35 76 -46 19 -10
49 -27 67 -38 75 -43 211 -121 285 -162 20 -12 42 -25 47 -29 6 -4 51 -30 100
-57 50 -27 107 -59 128 -71 l38 -22 6 17 c3 10 14 29 23 43 10 14 28 45 42 70
14 25 34 61 46 80 88 152 162 283 162 288 0 3 10 19 23 36 13 17 37 56 54 86
49 89 75 134 83 145 4 6 19 30 32 55 14 25 36 63 48 85 13 22 33 58 45 80 41
74 67 120 75 130 4 6 19 30 32 55 14 25 34 61 46 81 l20 36 -36 20 c-21 11
-54 30 -74 41 -21 12 -55 31 -75 43 -21 12 -42 25 -48 29 -5 4 -31 19 -57 34
-125 69 -145 80 -168 96 -14 9 -45 28 -70 42 -83 46 -118 67 -157 91 -21 13
-69 40 -106 61 -37 20 -83 46 -102 56 -19 11 -52 29 -72 41 -21 12 -42 25 -48
29 -5 4 -30 19 -55 32 -25 14 -63 35 -85 48 -93 53 -124 70 -129 70 -2 0 -14
-13 -25 -29z" />
    <path d="M7415 9471 c-6 -5 -41 -26 -80 -47 -38 -20 -87 -48 -108 -61 -21 -13
-54 -33 -73 -44 -19 -10 -50 -28 -70 -39 -47 -27 -171 -98 -211 -121 -59 -34
-107 -61 -153 -87 -25 -14 -56 -33 -70 -42 -25 -18 -46 -30 -155 -90 -33 -18
-64 -36 -70 -40 -5 -4 -27 -17 -47 -29 -21 -12 -55 -31 -75 -43 -21 -11 -55
-30 -76 -42 l-38 -20 -39 -63 c-22 -34 -40 -67 -40 -73 0 -5 -4 -10 -10 -10
-5 0 -10 -5 -10 -11 0 -6 -8 -23 -19 -37 -10 -15 -33 -54 -51 -87 -54 -98 -92
-164 -137 -241 -17 -27 -41 -70 -55 -95 -40 -71 -62 -108 -127 -217 -33 -57
-61 -105 -61 -108 0 -2 -15 -27 -33 -56 -19 -29 -47 -78 -64 -108 -53 -97 -75
-135 -87 -150 -6 -8 3 -4 21 8 17 12 34 22 38 22 4 0 19 8 33 19 15 10 68 40
117 66 50 27 107 59 128 72 46 29 85 51 192 111 44 24 87 49 95 56 17 12 38
25 120 69 30 17 79 45 108 64 29 18 55 33 58 33 3 0 18 8 32 18 15 11 63 38
107 62 44 23 91 50 105 59 14 9 38 23 54 31 34 17 68 57 106 126 29 53 72 130
102 182 10 17 27 49 39 70 12 20 26 44 33 52 11 15 17 25 58 99 11 20 24 41
28 46 4 6 19 30 32 55 30 53 47 84 120 210 30 52 66 115 80 140 55 98 71 126
104 177 19 29 34 56 34 59 0 3 9 19 21 35 19 27 15 40 -6 20z" />
    <path d="M10303 8703 c-11 -15 -31 -48 -45 -73 -14 -25 -34 -61 -46 -81 -11
-20 -25 -45 -30 -55 -6 -11 -31 -53 -55 -94 -24 -41 -55 -95 -69 -120 -37 -66
-60 -106 -112 -193 -25 -43 -46 -80 -46 -83 0 -3 -11 -20 -23 -37 -13 -18 -41
-63 -62 -102 -21 -38 -47 -85 -57 -102 -10 -18 -27 -50 -39 -70 -12 -21 -25
-42 -29 -48 -4 -5 -19 -30 -32 -55 -14 -25 -36 -65 -50 -89 l-25 -45 30 -50
c16 -28 41 -71 55 -96 14 -25 34 -61 45 -80 11 -19 31 -55 45 -80 13 -25 28
-49 32 -55 4 -5 17 -26 28 -46 41 -74 47 -84 58 -99 7 -8 21 -32 33 -52 12
-21 30 -54 41 -73 36 -63 56 -99 90 -160 18 -33 36 -64 40 -70 8 -11 35 -57
83 -145 17 -30 45 -79 64 -108 18 -29 33 -54 33 -57 0 -2 14 -27 32 -55 l32
-51 26 43 c15 24 40 68 57 98 50 91 75 134 83 145 4 6 19 30 32 55 14 25 35
63 48 85 13 22 33 58 45 80 38 70 66 117 101 172 19 29 34 56 34 59 0 3 8 18
19 32 10 15 29 47 43 72 26 46 53 94 87 153 30 51 99 173 120 210 10 19 25 43
32 54 l12 21 -23 38 c-33 57 -89 154 -128 224 -13 25 -28 50 -32 55 -4 6 -17
26 -27 45 -11 19 -31 55 -45 80 -14 25 -38 68 -53 95 -15 28 -31 52 -34 55 -7
5 -18 26 -64 110 -17 30 -41 72 -54 93 -13 21 -33 54 -44 73 -45 81 -57 102
-89 159 -18 33 -36 65 -40 70 -7 9 -19 30 -71 123 -11 20 -24 41 -29 45 l-8 9
-19 -29z" />
    <path d="M8250 8180 c0 -5 7 -10 16 -10 l15 0 -6 10 c-3 6 -10 10 -16 10 -5 0
-9 -4 -9 -10z" />
    <path d="M6855 8160 c3 -5 10 -10 16 -10 5 0 9 5 9 10 0 6 -7 10 -16 10 l-15
0 6 -10z" />
    <path d="M6934 8115 c22 -17 36 -19 36 -6 0 10 -24 21 -43 21 -7 0 -3 -7 7
-15z" />
    <path d="M8370 8110 c0 -5 7 -10 16 -10 l15 0 -6 10 c-3 6 -10 10 -16 10 -5 0
-9 -4 -9 -10z" />
    <path d="M7015 8070 c3 -5 10 -10 16 -10 5 0 9 5 9 10 0 6 -7 10 -16 10 l-15
0 6 -10z" />
    <path d="M8440 8070 c0 -5 7 -10 16 -10 l15 0 -6 10 c-3 6 -10 10 -16 10 -5 0
-9 -4 -9 -10z" />
    <path d="M7085 8030 c3 -5 10 -10 16 -10 5 0 9 5 9 10 0 6 -7 10 -16 10 l-15
0 6 -10z" />
    <path d="M7205 7960 c3 -5 10 -10 16 -10 5 0 9 5 9 10 0 6 -7 10 -16 10 l-15
0 6 -10z" />
    <path d="M7275 7920 c3 -5 10 -10 16 -10 5 0 9 5 9 10 0 6 -7 10 -16 10 l-15
0 6 -10z" />
    <path d="M8720 7910 c0 -5 7 -10 16 -10 l15 0 -6 10 c-3 6 -10 10 -16 10 -5 0
-9 -4 -9 -10z" />
    <path d="M8790 7870 c0 -5 7 -10 16 -10 l15 0 -6 10 c-3 6 -10 10 -16 10 -5 0
-9 -4 -9 -10z" />
    <path d="M7445 7820 c3 -5 10 -10 16 -10 5 0 9 5 9 10 0 6 -7 10 -16 10 l-15
0 6 -10z" />
    <path d="M8870 7820 c0 -5 7 -10 16 -10 l15 0 -6 10 c-3 6 -10 10 -16 10 -5 0
-9 -4 -9 -10z" />
    <path d="M7515 7780 c3 -5 10 -10 16 -10 5 0 9 5 9 10 0 6 -7 10 -16 10 l-15
0 6 -10z" />
    <path d="M8940 7780 c0 -5 7 -10 16 -10 l15 0 -6 10 c-3 6 -10 10 -16 10 -5 0
-9 -4 -9 -10z" />
    <path d="M9010 7741 c0 -10 24 -21 43 -21 7 0 3 7 -7 15 -22 17 -36 19 -36 6z" />
    <path d="M7705 7670 c3 -5 10 -10 16 -10 5 0 9 5 9 10 0 6 -7 10 -16 10 l-15
0 6 -10z" />
    <path d="M7795 7620 c3 -5 10 -10 16 -10 5 0 9 5 9 10 0 6 -7 10 -16 10 l-15
0 6 -10z" />
    <path d="M9220 7620 c0 -5 7 -10 16 -10 l15 0 -6 10 c-3 6 -10 10 -16 10 -5 0
-9 -4 -9 -10z" />
    <path d="M7865 7580 c3 -5 10 -10 16 -10 5 0 9 5 9 10 0 6 -7 10 -16 10 l-15
0 6 -10z" />
    <path d="M9290 7580 c0 -5 7 -10 16 -10 l15 0 -6 10 c-3 6 -10 10 -16 10 -5 0
-9 -4 -9 -10z" />
    <path d="M7985 7510 c3 -5 10 -10 16 -10 5 0 9 5 9 10 0 6 -7 10 -16 10 l-15
0 6 -10z" />
    <path d="M8075 7430 c3 -5 8 -10 11 -10 2 0 4 5 4 10 0 6 -5 10 -11 10 -5 0
-7 -4 -4 -10z" />
    <path d="M9570 7386 c0 -9 5 -16 10 -16 6 0 10 4 10 9 0 6 -4 13 -10 16 l-10
6 0 -15z" />
    <path d="M8060 6665 l0 -731 14 -19 c13 -19 31 -51 84 -145 14 -25 38 -64 53
-87 16 -23 29 -44 29 -46 0 -2 23 -44 51 -93 86 -149 124 -214 157 -274 13
-25 28 -49 32 -55 9 -11 38 -63 83 -145 16 -30 40 -68 52 -85 12 -16 28 -43
37 -60 8 -16 25 -48 38 -70 12 -22 34 -60 48 -85 13 -25 31 -52 38 -60 l14
-14 0 718 0 719 -41 71 c-59 101 -76 131 -100 174 -12 20 -26 44 -33 52 -11
16 -21 31 -63 109 -14 25 -29 51 -33 56 -4 6 -20 33 -36 60 -30 54 -52 94 -85
153 -12 20 -33 57 -47 82 -13 25 -28 50 -32 55 -9 11 -38 62 -83 145 -16 30
-35 62 -42 70 -15 17 -58 91 -121 210 l-14 25 0 -730z" />
    <path d="M11059 7385 c-4 -5 -19 -32 -35 -60 -30 -55 -53 -96 -84 -150 -11
-19 -29 -52 -41 -72 -12 -21 -25 -42 -29 -48 -4 -5 -20 -32 -35 -60 -16 -27
-33 -59 -39 -70 -14 -24 -73 -124 -100 -168 -11 -18 -29 -50 -41 -72 -41 -74
-67 -120 -75 -130 -4 -5 -19 -30 -32 -55 -45 -80 -66 -118 -91 -157 -21 -34
-63 -108 -103 -183 l-14 -25 0 -725 0 -725 13 25 c23 41 54 96 80 137 13 21
39 67 59 103 19 36 45 82 56 103 12 20 31 54 43 75 12 20 25 42 29 47 4 6 19
31 33 56 42 78 52 93 63 109 7 8 21 32 33 53 12 20 31 54 43 75 12 20 31 55
43 77 41 74 67 120 75 130 4 6 19 30 32 55 43 77 64 113 97 166 l31 51 -2 724
c-2 398 -6 720 -9 714z" />
    <path d="M8140 7321 c0 -6 5 -13 10 -16 l10 -6 0 15 c0 9 -4 16 -10 16 -5 0
-10 -4 -10 -9z" />
    <path d="M9610 7316 c0 -9 5 -16 10 -16 6 0 10 4 10 9 0 6 -4 13 -10 16 l-10
6 0 -15z" />
    <path d="M8190 7233 c0 -5 9 -19 20 -33 l20 -25 0 18 c0 9 -4 17 -10 17 -5 0
-10 7 -10 15 0 8 -4 15 -10 15 -5 0 -10 -3 -10 -7z" />
    <path d="M9660 7226 c0 -9 5 -16 10 -16 6 0 10 4 10 9 0 6 -4 13 -10 16 l-10
6 0 -15z" />
    <path d="M9730 7106 c0 -9 5 -16 10 -16 6 0 10 4 10 9 0 6 -4 13 -10 16 l-10
6 0 -15z" />
    <path d="M9770 7036 c0 -9 5 -16 10 -16 6 0 10 4 10 9 0 6 -4 13 -10 16 l-10
6 0 -15z" />
    <path d="M8320 7011 c0 -6 5 -13 10 -16 l10 -6 0 15 c0 9 -4 16 -10 16 -5 0
-10 -4 -10 -9z" />
    <path d="M8360 6941 c0 -6 5 -13 10 -16 l10 -6 0 15 c0 9 -4 16 -10 16 -5 0
-10 -4 -10 -9z" />
    <path d="M8430 6821 c0 -6 5 -13 10 -16 l10 -6 0 15 c0 9 -4 16 -10 16 -5 0
-10 -4 -10 -9z" />
    <path d="M9900 6816 c0 -9 5 -16 10 -16 6 0 10 4 10 9 0 6 -4 13 -10 16 l-10
6 0 -15z" />
    <path d="M8470 6751 c0 -6 5 -13 10 -16 l10 -6 0 15 c0 9 -4 16 -10 16 -5 0
-10 -4 -10 -9z" />
    <path d="M8520 6661 c0 -6 5 -13 10 -16 l10 -6 0 15 c0 9 -4 16 -10 16 -5 0
-10 -4 -10 -9z" />
    <path d="M10020 6606 c0 -9 5 -16 10 -16 6 0 10 4 10 9 0 6 -4 13 -10 16 l-10
6 0 -15z" />
    <path d="M8560 6591 c0 -6 5 -13 10 -16 l10 -6 0 15 c0 9 -4 16 -10 16 -5 0
-10 -4 -10 -9z" />
    <path d="M10060 6536 c0 -9 5 -16 10 -16 6 0 10 4 10 9 0 6 -4 13 -10 16 l-10
6 0 -15z" />
    <path d="M8650 6441 c0 -6 5 -13 10 -16 l10 -6 0 15 c0 9 -4 16 -10 16 -5 0
-10 -4 -10 -9z" />
    <path d="M10170 6346 c0 -9 5 -16 10 -16 6 0 10 4 10 9 0 6 -4 13 -10 16 l-10
6 0 -15z" />
    <path d="M8720 6321 c0 -6 5 -13 10 -16 l10 -6 0 15 c0 9 -4 16 -10 16 -5 0
-10 -4 -10 -9z" />
    <path d="M10210 6276 c0 -9 5 -16 10 -16 6 0 10 4 10 9 0 6 -4 13 -10 16 l-10
6 0 -15z" />
    <path d="M8760 6251 c0 -6 5 -13 10 -16 l10 -6 0 15 c0 9 -4 16 -10 16 -5 0
-10 -4 -10 -9z" />
    <path d="M8030 5889 c0 -6 -8 -23 -19 -37 -10 -15 -29 -47 -43 -72 -14 -25
-34 -61 -46 -80 -11 -19 -51 -89 -89 -155 -38 -66 -81 -138 -94 -160 -14 -22
-39 -65 -56 -95 -45 -82 -69 -125 -96 -167 -13 -21 -40 -69 -61 -106 -20 -37
-46 -83 -56 -102 -11 -19 -29 -52 -41 -72 -11 -20 -36 -61 -55 -90 -19 -29
-34 -56 -34 -59 0 -3 -9 -19 -20 -35 l-21 -28 25 -45 c13 -24 36 -63 51 -86
15 -23 38 -63 52 -88 15 -26 35 -63 46 -82 11 -19 34 -60 50 -90 17 -30 41
-72 54 -93 24 -39 45 -74 91 -157 14 -25 32 -56 42 -70 9 -14 20 -32 23 -40 4
-8 18 -33 32 -55 14 -22 28 -47 32 -55 3 -8 17 -32 30 -53 13 -21 33 -54 44
-73 10 -19 29 -51 40 -71 12 -21 33 -58 47 -83 14 -25 32 -56 42 -70 9 -14 20
-33 23 -43 9 -25 27 -18 46 19 9 16 40 69 69 117 28 48 52 92 52 97 0 6 4 10
8 10 5 0 14 10 20 23 10 20 35 64 104 187 14 25 35 63 48 85 12 22 26 45 30
50 4 6 19 30 32 55 14 25 35 62 47 83 11 20 30 52 40 71 11 19 31 53 45 75 15
22 26 43 26 46 0 2 16 29 35 59 19 30 35 58 35 61 0 4 8 19 19 33 18 27 62
102 88 154 l14 26 -22 39 c-12 21 -33 58 -47 83 -14 25 -49 85 -79 133 -29 49
-53 90 -53 92 0 2 -21 39 -46 82 -52 86 -74 125 -112 193 -13 25 -28 50 -32
55 -4 6 -17 27 -29 48 -12 20 -30 53 -41 72 -32 56 -55 96 -84 150 -16 28 -33
57 -39 65 -12 15 -21 30 -65 109 -13 25 -32 57 -41 71 -9 14 -23 37 -31 53
-14 27 -30 36 -30 16z" />
    <path d="M8806 4601 c-4 -7 -5 -15 -2 -18 9 -9 19 4 14 18 l-4 13 -8 -13z" />
    <path d="M7230 4578 c-38 -23 -81 -48 -150 -86 -25 -13 -49 -28 -55 -32 -19
-15 -120 -71 -137 -77 -10 -3 -18 -9 -18 -14 0 -5 -5 -9 -10 -9 -6 0 -29 -11
-51 -26 -22 -14 -56 -34 -75 -45 -19 -10 -50 -28 -69 -39 -63 -36 -99 -56
-160 -90 -33 -18 -64 -36 -70 -40 -11 -8 -55 -34 -145 -83 -30 -17 -73 -41
-94 -55 -22 -13 -58 -34 -80 -46 -53 -29 -120 -67 -124 -71 -5 -4 88 -174 112
-205 11 -16 21 -31 63 -109 14 -25 29 -50 33 -56 7 -9 20 -31 78 -135 14 -25
50 -88 80 -140 70 -122 89 -155 120 -210 14 -25 38 -64 53 -87 16 -23 29 -44
29 -47 0 -5 51 -93 123 -211 10 -16 23 -42 30 -57 6 -16 15 -28 20 -28 4 0 58
30 120 66 243 144 277 164 283 164 3 0 30 16 60 35 30 19 57 35 60 35 3 0 18
8 32 18 15 11 56 35 92 54 97 52 164 90 175 98 11 9 53 33 170 98 44 24 87 49
95 56 17 12 40 26 120 69 30 16 61 34 68 40 l12 10 -9 11 c-9 11 -25 40 -79
136 -13 25 -28 50 -32 55 -4 6 -17 27 -29 48 -12 20 -31 54 -43 75 -11 20 -26
46 -32 57 -6 11 -20 34 -32 50 -11 17 -28 44 -36 60 -8 17 -25 48 -38 70 -12
22 -34 60 -48 85 -13 25 -28 50 -32 55 -8 11 -34 56 -83 145 -17 30 -41 72
-54 93 -23 37 -31 50 -87 151 -15 27 -42 72 -60 100 -18 28 -35 59 -39 69 -3
9 -10 17 -14 17 -4 0 -24 -10 -43 -22z" />
    <path d="M3187 4563 c3 -10 15 -30 25 -45 10 -14 18 -28 18 -31 0 -4 78 -141
162 -287 12 -19 32 -55 46 -80 13 -25 28 -49 32 -55 4 -5 17 -27 29 -47 49
-87 61 -109 87 -149 14 -23 36 -61 48 -83 13 -23 33 -59 46 -81 12 -22 34 -60
48 -85 13 -25 28 -49 32 -55 4 -5 17 -27 29 -47 12 -21 29 -53 40 -70 10 -18
29 -53 43 -77 l25 -45 79 -44 c44 -24 102 -58 129 -74 52 -32 150 -89 340
-197 61 -35 132 -76 158 -92 27 -16 51 -29 54 -29 3 0 17 -8 31 -19 30 -20 92
-56 192 -109 36 -19 77 -43 92 -53 14 -11 29 -19 32 -19 3 0 37 -20 76 -45 38
-25 70 -43 70 -40 0 7 -67 130 -97 178 -23 37 -37 60 -91 156 -14 25 -38 68
-55 95 -16 28 -38 65 -47 81 -9 17 -41 71 -70 120 -83 143 -91 157 -118 205
-13 25 -28 50 -32 55 -4 6 -17 27 -29 48 -12 20 -31 54 -42 75 -12 20 -32 55
-44 77 -13 22 -38 67 -57 99 -18 32 -42 64 -53 70 -11 6 -31 18 -45 27 -14 9
-45 27 -70 41 -25 14 -62 35 -82 47 -21 11 -55 30 -75 42 -21 12 -42 25 -48
29 -5 4 -37 22 -70 40 -57 32 -78 44 -159 89 -19 11 -52 31 -73 44 -43 27
-143 82 -188 105 -16 8 -43 25 -60 37 -16 12 -55 35 -85 52 -85 47 -125 70
-169 97 -22 15 -43 26 -47 26 -3 0 -19 9 -35 21 l-29 20 7 -18z" />
    <path d="M10250 4564 l0 -15 10 6 c6 3 10 10 10 16 0 5 -4 9 -10 9 -5 0 -10
-7 -10 -16z" />
    <path d="M8736 4481 c-4 -7 -5 -15 -2 -18 9 -9 19 4 14 18 l-4 13 -8 -13z" />
    <path d="M8696 4411 c-4 -7 -5 -15 -2 -18 9 -9 19 4 14 18 l-4 13 -8 -13z" />
    <path d="M10140 4374 l0 -15 10 6 c6 3 10 10 10 16 0 5 -4 9 -10 9 -5 0 -10
-7 -10 -16z" />
    <path d="M8646 4321 c-4 -7 -5 -15 -2 -18 9 -9 19 4 14 18 l-4 13 -8 -13z" />
    <path d="M10090 4284 l0 -15 10 6 c6 3 10 10 10 16 0 5 -4 9 -10 9 -5 0 -10
-7 -10 -16z" />
    <path d="M8596 4241 c-4 -7 -5 -15 -2 -18 9 -9 19 4 14 18 l-4 13 -8 -13z" />
    <path d="M10050 4214 l0 -15 10 6 c6 3 10 10 10 16 0 5 -4 9 -10 9 -5 0 -10
-7 -10 -16z" />
    <path d="M8556 4171 c-4 -7 -5 -15 -2 -18 9 -9 19 4 14 18 l-4 13 -8 -13z" />
    <path d="M8516 4101 c-4 -7 -5 -15 -2 -18 9 -9 19 4 14 18 l-4 13 -8 -13z" />
    <path d="M9980 4094 l0 -15 10 6 c6 3 10 10 10 16 0 5 -4 9 -10 9 -5 0 -10 -7
-10 -16z" />
    <path d="M9940 4024 l0 -15 10 6 c6 3 10 10 10 16 0 5 -4 9 -10 9 -5 0 -10 -7
-10 -16z" />
    <path d="M8446 3981 c-4 -7 -5 -15 -2 -18 9 -9 19 4 14 18 l-4 13 -8 -13z" />
    <path d="M9900 3954 l0 -15 10 6 c6 3 10 10 10 16 0 5 -4 9 -10 9 -5 0 -10 -7
-10 -16z" />
    <path d="M8406 3911 c-4 -7 -5 -15 -2 -18 9 -9 19 4 14 18 l-4 13 -8 -13z" />
    <path d="M9850 3874 l0 -15 10 6 c6 3 10 10 10 16 0 5 -4 9 -10 9 -5 0 -10 -7
-10 -16z" />
    <path d="M4487 3833 c4 -10 17 -35 30 -55 13 -21 23 -40 23 -43 0 -3 11 -24
26 -46 14 -22 34 -56 45 -75 10 -19 29 -51 40 -71 12 -21 33 -58 47 -83 13
-25 28 -49 32 -55 8 -10 22 -34 78 -135 14 -25 28 -47 31 -50 3 -3 14 -21 25
-40 10 -19 28 -51 39 -70 11 -19 34 -60 50 -90 17 -30 41 -72 54 -93 13 -21
33 -54 44 -73 23 -41 40 -71 109 -191 l52 -93 739 0 739 0 -11 27 c-6 15 -14
32 -19 38 -8 11 -33 54 -83 145 -17 30 -39 68 -51 85 -12 16 -26 39 -32 50
-33 60 -68 121 -74 130 -4 6 -17 27 -29 48 -12 20 -29 52 -39 70 -10 17 -33
58 -51 91 -18 32 -47 82 -63 110 -35 59 -60 102 -96 166 -14 25 -38 64 -53 87
-16 23 -29 44 -29 48 0 3 -15 29 -32 58 -18 29 -42 69 -52 90 l-19 37 -738 0
-738 0 6 -17z" />
    <path d="M9806 3804 c-11 -28 -6 -39 9 -20 8 11 15 23 15 28 0 14 -18 9 -24
-8z" />
    <path d="M9760 3714 l0 -15 10 6 c6 3 10 10 10 16 0 5 -4 9 -10 9 -5 0 -10 -7
-10 -16z" />
    <path d="M8246 3631 c-4 -7 -5 -15 -2 -18 9 -9 19 4 14 18 l-4 13 -8 -13z" />
    <path d="M9690 3594 l0 -15 10 6 c6 3 10 10 10 16 0 5 -4 9 -10 9 -5 0 -10 -7
-10 -16z" />
    <path d="M8200 3555 l-12 -15 16 0 c9 0 16 7 16 15 0 8 -2 15 -4 15 -2 0 -9
-7 -16 -15z" />
    <path d="M8156 3481 c-4 -7 -5 -15 -2 -18 9 -9 19 4 14 18 l-4 13 -8 -13z" />
    <path d="M8116 3411 c-4 -7 -5 -15 -2 -18 9 -9 19 4 14 18 l-4 13 -8 -13z" />
    <path d="M9540 3340 c0 -5 5 -10 10 -10 6 0 10 5 10 10 0 6 -4 10 -10 10 -5 0
-10 -4 -10 -10z" />
    <path d="M8035 3290 l-6 -10 15 0 c9 0 16 5 16 10 0 6 -4 10 -9 10 -6 0 -13
-4 -16 -10z" />
    <path d="M9310 3200 c0 -5 4 -10 9 -10 6 0 13 5 16 10 l6 10 -15 0 c-9 0 -16
-4 -16 -10z" />
    <path d="M9120 3090 c0 -5 4 -10 9 -10 6 0 13 5 16 10 l6 10 -15 0 c-9 0 -16
-4 -16 -10z" />
    <path d="M9050 3050 c0 -5 4 -10 9 -10 6 0 13 5 16 10 l6 10 -15 0 c-9 0 -16
-4 -16 -10z" />
    <path d="M7605 3040 l-6 -10 15 0 c9 0 16 5 16 10 0 6 -4 10 -9 10 -6 0 -13
-4 -16 -10z" />
    <path d="M7535 3000 l-6 -10 15 0 c9 0 16 5 16 10 0 6 -4 10 -9 10 -6 0 -13
-4 -16 -10z" />
    <path d="M8960 3000 c0 -5 4 -10 9 -10 6 0 13 5 16 10 l6 10 -15 0 c-9 0 -16
-4 -16 -10z" />
    <path d="M8840 2930 c0 -5 4 -10 9 -10 6 0 13 5 16 10 l6 10 -15 0 c-9 0 -16
-4 -16 -10z" />
    <path d="M8770 2890 c0 -5 4 -10 9 -10 6 0 13 5 16 10 l6 10 -15 0 c-9 0 -16
-4 -16 -10z" />
    <path d="M7325 2880 l-6 -10 15 0 c9 0 16 5 16 10 0 6 -4 10 -9 10 -6 0 -13
-4 -16 -10z" />
    <path d="M8700 2850 c0 -5 4 -10 9 -10 6 0 13 5 16 10 l6 10 -15 0 c-9 0 -16
-4 -16 -10z" />
    <path d="M7255 2840 l-6 -10 15 0 c9 0 16 5 16 10 0 6 -4 10 -9 10 -6 0 -13
-4 -16 -10z" />
    <path d="M7185 2800 l-6 -10 15 0 c9 0 16 5 16 10 0 6 -4 10 -9 10 -6 0 -13
-4 -16 -10z" />
    <path d="M7065 2730 l-6 -10 15 0 c9 0 16 5 16 10 0 6 -4 10 -9 10 -6 0 -13
-4 -16 -10z" />
    <path d="M8490 2730 c0 -5 4 -10 9 -10 6 0 13 5 16 10 l6 10 -15 0 c-9 0 -16
-4 -16 -10z" />
    <path d="M6995 2690 l-6 -10 15 0 c9 0 16 5 16 10 0 6 -4 10 -9 10 -6 0 -13
-4 -16 -10z" />
    <path d="M8420 2690 c0 -5 4 -10 9 -10 6 0 13 5 16 10 l6 10 -15 0 c-9 0 -16
-4 -16 -10z" />
    <path d="M6905 2640 l-6 -10 15 0 c9 0 16 5 16 10 0 6 -4 10 -9 10 -6 0 -13
-4 -16 -10z" />
    <path d="M8270 2600 c0 -5 4 -10 9 -10 6 0 13 5 16 10 l6 10 -15 0 c-9 0 -16
-4 -16 -10z" />
    <path d="M6825 2590 l-6 -10 15 0 c9 0 16 5 16 10 0 6 -4 10 -9 10 -6 0 -13
-4 -16 -10z" />
  </g>
  <g transform="translate(0.000000,1341.000000) scale(0.100000,-0.100000)" fill="#01eabd" stroke="none">
    <path d="M5154 10799 c-46 -30 -544 -317 -759 -439 -55 -31 -142 -81 -193
-111 -50 -30 -129 -75 -175 -101 l-82 -48 730 0 730 0 110 66 c61 36 160 94
220 128 179 102 857 491 895 515 l35 21 -731 0 -730 0 -50 -31z" />
    <path d="M8615 10160 c3 -5 8 -10 11 -10 3 0 2 5 -1 10 -3 6 -8 10 -11 10 -3
0 -2 -4 1 -10z" />
    <path d="M9545 10070 c3 -5 8 -10 11 -10 3 0 2 5 -1 10 -3 6 -8 10 -11 10 -3
0 -2 -4 1 -10z" />
    <path d="M3741 9802 c-84 -147 -176 -305 -203 -352 -38 -64 -234 -406 -375
-653 -2 -4 329 -6 737 -5 l742 3 69 119 c38 65 69 120 69 122 0 1 24 42 54 91
29 48 126 216 216 373 90 157 195 339 235 405 39 66 77 130 84 143 l12 22
-743 0 -743 0 -154 -268z" />
    <path d="M9875 9500 c3 -5 8 -10 11 -10 3 0 2 5 -1 10 -3 6 -8 10 -11 10 -3 0
-2 -4 1 -10z" />
    <path d="M4834 9068 l-7 -11 11 7 c12 7 16 16 8 16 -3 0 -8 -5 -12 -12z" />
    <path d="M3140 8015 l0 -745 745 0 745 0 0 745 0 745 -745 0 -745 0 0 -745z" />
    <path d="M6094 8688 l-7 -11 11 7 c7 4 12 9 12 12 0 8 -9 4 -16 -8z" />
    <path d="M3168 7213 c11 -16 105 -176 209 -358 105 -181 237 -411 295 -510 58
-99 131 -226 162 -282 l58 -103 743 0 744 0 -87 148 c-47 81 -167 289 -267
462 -100 173 -229 395 -286 493 l-103 177 -744 0 -743 0 19 -27z" />
    <path d="M3155 7160 c3 -5 8 -10 11 -10 3 0 2 5 -1 10 -3 6 -8 10 -11 10 -3 0
-2 -4 1 -10z" />
    <path d="M2734 6618 l-7 -11 11 7 c12 7 16 16 8 16 -3 0 -8 -5 -12 -12z" />
    <path d="M2734 6548 l-7 -11 11 7 c12 7 16 16 8 16 -3 0 -8 -5 -12 -12z" />
    <path d="M4040 5871 c47 -26 202 -116 345 -198 143 -83 379 -219 525 -303 146
-84 270 -156 276 -161 l11 -9 729 2 729 3 -78 44 c-43 24 -187 106 -320 183
-133 77 -378 218 -545 314 l-302 174 -727 0 -727 0 84 -49z" />
    <path d="M6013 3923 c4 -3 10 -3 14 0 3 4 0 7 -7 7 -7 0 -10 -3 -7 -7z" />
  </g>
  <g transform="translate(0.000000,1341.000000) scale(0.100000,-0.100000)" fill="#009376" stroke="none">
    <path d="M6818 8180 c18 -11 34 -20 36 -20 4 0 64 -34 164 -91 17 -11 47 -27
65 -38 54 -31 160 -92 194 -112 17 -10 49 -29 70 -42 21 -13 58 -35 83 -49 25
-14 61 -34 80 -45 126 -73 241 -139 275 -158 73 -41 113 -64 154 -89 22 -15
44 -26 48 -26 5 0 19 -9 33 -20 l25 -20 723 0 723 0 -5 9 c-4 5 -34 25 -69 44
-34 19 -79 44 -99 56 -21 11 -53 30 -72 40 -19 11 -52 31 -73 44 -21 13 -67
40 -103 59 -36 19 -82 44 -102 56 -21 12 -55 31 -75 43 -20 11 -61 36 -90 55
-29 19 -56 34 -59 34 -3 0 -18 8 -32 19 -15 10 -54 33 -87 51 -61 34 -98 55
-160 90 -19 11 -52 29 -72 41 -21 12 -42 25 -48 29 -5 4 -32 19 -58 34 l-48
26 -727 0 -727 0 33 -20z" />
    <path d="M8080 7430 c0 -6 16 -36 35 -66 19 -30 35 -58 35 -62 0 -4 16 -31 35
-59 19 -29 35 -54 35 -57 0 -2 21 -40 46 -83 52 -86 74 -125 112 -193 13 -25
28 -49 32 -55 7 -9 16 -23 78 -135 14 -25 34 -61 45 -80 11 -19 31 -55 45 -80
14 -25 38 -64 53 -87 16 -23 29 -44 29 -48 0 -3 11 -24 26 -46 25 -41 44 -73
95 -164 l28 -50 740 -3 c408 -1 741 0 741 3 0 3 -11 24 -26 46 -27 44 -50 84
-97 169 -17 30 -41 72 -54 93 -13 21 -33 54 -44 73 -45 80 -57 102 -89 159
-18 33 -41 72 -51 87 -11 14 -19 28 -19 31 0 2 -25 45 -55 96 -56 92 -77 128
-123 211 -13 25 -28 50 -32 55 -4 6 -20 33 -36 60 -15 28 -36 66 -47 85 -11
19 -29 52 -40 73 l-21 37 -738 0 -738 0 0 -10z" />
    <path d="M8820 5385 l0 -745 745 0 745 0 0 745 0 745 -745 0 -745 0 0 -745z" />
    <path d="M8788 4567 c-14 -23 -36 -60 -48 -82 -13 -22 -34 -60 -48 -85 -14
-25 -34 -61 -45 -80 -10 -19 -24 -42 -31 -50 -6 -8 -17 -26 -24 -39 -8 -13
-22 -39 -33 -57 -10 -19 -28 -51 -40 -71 -12 -21 -25 -42 -29 -48 -4 -5 -19
-30 -32 -55 -30 -53 -47 -84 -120 -210 -30 -52 -66 -116 -80 -141 -46 -83 -53
-94 -59 -99 -3 -3 -17 -25 -31 -50 -49 -88 -69 -122 -84 -146 l-16 -24 741 0
741 0 34 53 c18 28 46 77 63 107 48 87 75 134 83 145 7 10 40 67 85 150 32 61
49 88 61 105 7 8 21 32 33 53 12 20 30 53 41 72 11 19 29 52 41 73 12 20 25
42 29 47 4 6 19 30 32 55 14 25 36 63 48 85 13 22 33 58 46 81 12 22 33 58 46
80 14 21 41 69 61 107 l37 67 -737 0 -738 0 -27 -43z" />
    <path d="M8005 3273 c-28 -14 -68 -37 -90 -51 -22 -14 -94 -57 -160 -95 -66
-38 -135 -78 -152 -88 -18 -10 -50 -29 -70 -40 -21 -12 -67 -38 -103 -59 -36
-21 -82 -47 -102 -59 -21 -11 -55 -31 -75 -42 -21 -12 -58 -33 -83 -47 -25
-13 -49 -28 -55 -32 -5 -4 -28 -18 -50 -30 -22 -13 -60 -34 -85 -48 -25 -14
-54 -30 -65 -36 -11 -6 -34 -20 -50 -32 -17 -11 -39 -25 -50 -30 l-20 -9 723
-3 723 -2 39 22 c21 13 64 39 97 58 32 19 67 39 78 46 43 24 228 130 273 155
61 36 107 62 152 87 25 13 50 28 55 32 6 4 33 20 60 36 28 15 66 36 85 47 19
11 55 31 80 45 25 14 100 58 168 99 68 40 126 73 130 73 4 0 16 7 26 15 l20
15 -725 0 -724 0 -50 -27z" />
  </g>
  <g transform="translate(0.000000,1341.000000) scale(0.100000,-0.100000)" fill="#94e3d3" stroke="none">
    <path d="M4114 10198 l-7 -11 11 7 c12 7 16 16 8 16 -3 0 -8 -5 -12 -12z" />
    <path d="M5634 10198 l-7 -11 11 7 c12 7 16 16 8 16 -3 0 -8 -5 -12 -12z" />
    <path d="M9325 10200 c3 -5 8 -10 11 -10 3 0 2 5 -1 10 -3 6 -8 10 -11 10 -3
0 -2 -4 1 -10z" />
    <path d="M7355 9780 c3 -5 8 -10 11 -10 3 0 2 5 -1 10 -3 6 -8 10 -11 10 -3 0
-2 -4 1 -10z" />
    <path d="M5675 9650 c3 -5 8 -10 11 -10 3 0 2 5 -1 10 -3 6 -8 10 -11 10 -3 0
-2 -4 1 -10z" />
    <path d="M5675 9580 c3 -5 8 -10 11 -10 3 0 2 5 -1 10 -3 6 -8 10 -11 10 -3 0
-2 -4 1 -10z" />
    <path d="M7863 9543 c208 -2 546 -2 750 0 205 1 35 2 -378 2 -412 0 -580 -1
-372 -2z" />
    <path d="M3574 9518 l-7 -11 11 7 c7 4 12 9 12 12 0 8 -9 4 -16 -8z" />
    <path d="M7423 9473 c4 -3 10 -3 14 0 3 4 0 7 -7 7 -7 0 -10 -3 -7 -7z" />
    <path d="M8614 8828 l-7 -11 11 7 c7 4 12 9 12 12 0 8 -9 4 -16 -8z" />
    <path d="M3513 8753 c208 -2 546 -2 750 0 205 1 35 2 -378 2 -412 0 -580 -1
-372 -2z" />
    <path d="M2734 8068 l-7 -11 11 7 c12 7 16 16 8 16 -3 0 -8 -5 -12 -12z" />
    <path d="M9874 8038 l-7 -11 11 7 c12 7 16 16 8 16 -3 0 -8 -5 -12 -12z" />
    <path d="M8875 7870 c3 -5 8 -10 11 -10 3 0 2 5 -1 10 -3 6 -8 10 -11 10 -3 0
-2 -4 1 -10z" />
    <path d="M8403 7473 c202 -2 532 -2 735 0 202 1 36 2 -368 2 -404 0 -570 -1
-367 -2z" />
    <path d="M2385 6730 c0 -404 1 -570 2 -367 2 202 2 532 0 735 -1 202 -2 36 -2
-368z" />
    <path d="M11065 6665 c0 -401 1 -564 2 -362 2 203 2 531 0 730 -1 199 -2 34
-2 -368z" />
    <path d="M8195 7150 c3 -5 8 -10 11 -10 3 0 2 5 -1 10 -3 6 -8 10 -11 10 -3 0
-2 -4 1 -10z" />
    <path d="M5255 6230 c3 -5 8 -10 11 -10 3 0 2 5 -1 10 -3 6 -8 10 -11 10 -3 0
-2 -4 1 -10z" />
    <path d="M8785 5415 c0 -401 1 -564 2 -362 2 203 2 531 0 730 -1 199 -2 34 -2
-368z" />
    <path d="M3884 5908 l-7 -11 11 7 c12 7 16 16 8 16 -3 0 -8 -5 -12 -12z" />
    <path d="M7774 5518 l-7 -11 11 7 c7 4 12 9 12 12 0 8 -9 4 -16 -8z" />
    <path d="M6734 5168 l-7 -11 11 7 c7 4 12 9 12 12 0 8 -9 4 -16 -8z" />
    <path d="M5583 5163 c208 -2 546 -2 750 0 205 1 35 2 -378 2 -412 0 -580 -1
-372 -2z" />
    <path d="M6514 4858 l-7 -11 11 7 c12 7 16 16 8 16 -3 0 -8 -5 -12 -12z" />
    <path d="M3154 4648 l-7 -11 11 7 c7 4 12 9 12 12 0 8 -9 4 -16 -8z" />
    <path d="M4834 4518 l-7 -11 11 7 c7 4 12 9 12 12 0 8 -9 4 -16 -8z" />
    <path d="M4842 3883 c201 -2 534 -2 740 0 205 1 40 2 -367 2 -407 0 -575 -1
-373 -2z" />
    <path d="M7775 3800 c3 -5 8 -10 11 -10 3 0 2 5 -1 10 -3 6 -8 10 -11 10 -3 0
-2 -4 1 -10z" />
    <path d="M7775 3730 c3 -5 8 -10 11 -10 3 0 2 5 -1 10 -3 6 -8 10 -11 10 -3 0
-2 -4 1 -10z" />
  </g>
  <g transform="translate(0.000000,1341.000000) scale(0.100000,-0.100000)" fill="#000000" stroke="none" />
  <g transform="translate(0.000000,1341.000000) scale(0.100000,-0.100000)" fill="#000000" stroke="none" />
  <g transform="translate(0.000000,1341.000000) scale(0.100000,-0.100000)" fill="#000000" stroke="none" />
  <g transform="translate(0.000000,1341.000000) scale(0.100000,-0.100000)" fill="#000000" stroke="none" />
  <g transform="translate(0.000000,1341.000000) scale(0.100000,-0.100000)" fill="#000000" stroke="none" />
  <g transform="translate(0.000000,1341.000000) scale(0.100000,-0.100000)" fill="#000000" stroke="none" />
  <g transform="translate(0.000000,1341.000000) scale(0.100000,-0.100000)" fill="#000000" stroke="none" />
  <g transform="translate(0.000000,1341.000000) scale(0.100000,-0.100000)" fill="#ffffff" stroke="none" />
  <g transform="translate(0.000000,1341.000000) scale(0.100000,-0.100000)" fill="#0000ff" stroke="none" />
  <g transform="translate(0.000000,1341.000000) scale(0.100000,-0.100000)" fill="#ff00ff" stroke="none" />
  <g transform="translate(0.000000,1341.000000) scale(0.100000,-0.100000)" fill="#000000" stroke="none" />
  <g transform="translate(0.000000,1341.000000) scale(0.100000,-0.100000)" fill="#ffff00" stroke="none" />
  <g transform="translate(0.000000,1341.000000) scale(0.100000,-0.100000)" fill="#00ff00" stroke="none" />
  <g transform="translate(0.000000,1341.000000) scale(0.100000,-0.100000)" fill="#ff0000" stroke="none" />
  <g transform="translate(0.000000,1341.000000) scale(0.100000,-0.100000)" fill="#c0c0c0" stroke="none" />
  <g transform="translate(0.000000,1341.000000) scale(0.100000,-0.100000)" fill="#808080" stroke="none" />
  <g transform="translate(0.000000,1341.000000) scale(0.100000,-0.100000)" fill="#008080" stroke="none" />
  <g transform="translate(0.000000,1341.000000) scale(0.100000,-0.100000)" fill="#00ffff" stroke="none" />
  <g transform="translate(0.000000,1341.000000) scale(0.100000,-0.100000)" fill="#000000" stroke="none" />
</svg>